<!DOCTYPE svg PUBLIC "-//W3C//DTD SVG 1.1//EN" "http://www.w3.org/Graphics/SVG/1.1/DTD/svg11.dtd">
<!-- Uploaded to: SVG Repo, www.svgrepo.com, Transformed by: SVG Repo Mixer Tools -->
<svg fill="#0d548e" height="800px" width="800px" version="1.2" baseProfile="tiny" id="H1_1_" xmlns="http://www.w3.org/2000/svg" xmlns:xlink="http://www.w3.org/1999/xlink" viewBox="-351 153 256 256" xml:space="preserve">
<g id="SVGRepo_bgCarrier" stroke-width="0"/>
<g id="SVGRepo_tracerCarrier" stroke-linecap="round" stroke-linejoin="round"/>
<g id="SVGRepo_iconCarrier"> <g> <circle cx="-227" cy="177.1" r="20.8"/> <path d="M-150.7,385.3l-28-39.9l-6-47.1c0-0.6-0.1-1.3-0.2-1.9c0-0.2-0.1-0.5-0.2-0.7l-11.5-65.6l14.8,10.4l6.5,36.7 c1,5.7,6.4,9.4,12.1,8.4s9.4-6.4,8.4-12.1l-7.3-40.9c-0.5-2.8-2.1-5.2-4.3-6.7l-25.5-17.8c-6.5-5.1-14.9-7.7-23.7-6.4l-17,3 c-10.4,2.3-18.5,9.6-22.2,18.9l-9,24.6l-31.4,14.6l-4.9-31.7l-3.5,0.5l5.1,32.8c-4.5,2.7-6.3,8.5-4.1,13.3c1.4,3,4.1,5,7.1,5.7 l18.8,121.6l3.5-0.5l-18.6-120.9c1-0.1,2.1-0.4,3.1-0.9l37.7-17.5c2.6-1.2,4.5-3.3,5.3-5.9l8.1-22.2l9.4,53l-27.6,44 c-1.1,1.5-1.8,3.2-2.1,5.2l-9,51.1c-1.3,7,3.5,13.8,10.6,15.1s13.8-3.5,15.1-10.6l8.4-48l21.5-27.6l7.6,33.2c0.3,1.8,1,3.6,2.1,5.2 l29.8,42.5c4.2,5.9,12.2,7.3,18,3.2C-148,399.2-146.6,391.2-150.7,385.3z"/> </g> </g>
</svg>