<svg width="260" xmlns="http://www.w3.org/2000/svg" height="79.044" fill="none"><g data-testid="express-icon" style="fill: rgb(0, 0, 0);"><g data-testid="svg-path"><path d="M4.321 60.148V31.82h35.368v-1.656H4.321V4.321h37.604V2.665H2.665v59.139h39.592v-1.656H4.321ZM74.146 19.23 59.485 38.529 45.156 19.23h-2.154l15.489 20.542-16.98 22.032h1.988l15.986-20.79 16.069 20.79h2.07L60.562 39.772 76.133 19.23h-1.987Zm8.448 57.152V49.877h.166c.994 3.865 2.954 6.971 5.88 9.318 2.927 2.347 6.654 3.52 11.182 3.52 2.927 0 5.522-.593 7.786-1.781a16.565 16.565 0 0 0 5.674-4.845c1.518-2.043 2.678-4.418 3.479-7.123.8-2.706 1.201-5.55 1.201-8.532 0-3.202-.414-6.157-1.243-8.862-.828-2.706-2.029-5.053-3.603-7.041a16.57 16.57 0 0 0-5.715-4.638c-2.236-1.104-4.763-1.657-7.579-1.657-2.153 0-4.155.318-6.005.953-1.85.635-3.492 1.532-4.928 2.692a18.201 18.201 0 0 0-3.727 4.1 18.865 18.865 0 0 0-2.402 5.177h-.166V19.23h-1.657v57.152h1.657Zm17.228-15.241c-5.19 0-9.359-1.78-12.507-5.342-3.147-3.562-4.721-8.683-4.721-15.365 0-2.761.387-5.383 1.16-7.868.773-2.485 1.891-4.666 3.354-6.544a16.122 16.122 0 0 1 5.425-4.473c2.154-1.104 4.584-1.656 7.289-1.656 2.761 0 5.177.552 7.248 1.656a14.709 14.709 0 0 1 5.135 4.515c1.353 1.905 2.375 4.086 3.065 6.543s1.035 5.066 1.035 7.827c0 2.485-.317 4.956-.952 7.413-.635 2.458-1.616 4.666-2.941 6.627a16.007 16.007 0 0 1-5.094 4.804c-2.07 1.242-4.569 1.863-7.496 1.863Zm27.251.663V37.701a23.5 23.5 0 0 1 .994-6.792c.662-2.209 1.684-4.155 3.064-5.839 1.381-1.684 3.134-3.01 5.26-3.976 2.126-.966 4.652-1.367 7.579-1.201v-1.657c-2.54-.055-4.763.221-6.668.829-1.905.607-3.548 1.435-4.928 2.484-1.381 1.05-2.485 2.278-3.313 3.686a16.47 16.47 0 0 0-1.823 4.515h-.165V19.23h-1.657v42.574h1.657Zm18.968-20.955h35.616c.11-2.927-.18-5.743-.87-8.449-.69-2.706-1.795-5.108-3.313-7.206-1.519-2.098-3.479-3.783-5.881-5.053s-5.26-1.905-8.573-1.905c-2.374 0-4.693.497-6.957 1.491-2.264.994-4.252 2.444-5.964 4.349-1.712 1.905-3.092 4.238-4.141 6.999-1.049 2.761-1.574 5.908-1.574 9.442 0 3.148.359 6.088 1.077 8.821.718 2.734 1.822 5.108 3.313 7.124 1.491 2.015 3.41 3.575 5.756 4.679 2.347 1.105 5.177 1.629 8.49 1.574 4.86 0 8.946-1.366 12.259-4.1 3.313-2.733 5.273-6.585 5.881-11.554h-1.657c-.718 4.693-2.554 8.213-5.508 10.56-2.954 2.347-6.668 3.52-11.14 3.52-3.037 0-5.605-.524-7.703-1.573-2.099-1.049-3.81-2.485-5.136-4.307-1.325-1.823-2.305-3.962-2.94-6.42-.635-2.457-.98-5.121-1.035-7.992ZM180 39.192h-33.959c.165-2.982.717-5.66 1.656-8.034.939-2.375 2.167-4.404 3.686-6.088 1.518-1.684 3.285-2.968 5.301-3.852 2.015-.883 4.183-1.325 6.502-1.325 2.761 0 5.191.511 7.289 1.532 2.098 1.022 3.851 2.416 5.259 4.183 1.409 1.767 2.472 3.824 3.189 6.171.718 2.347 1.077 4.818 1.077 7.413Zm36.03-7.372h1.657c0-4.749-1.38-8.2-4.141-10.353-2.761-2.154-6.516-3.231-11.265-3.231-2.651 0-4.887.332-6.709.994-1.822.663-3.313 1.519-4.473 2.568-1.159 1.049-1.988 2.209-2.485 3.479-.497 1.27-.745 2.485-.745 3.644 0 2.319.414 4.169 1.242 5.55.829 1.38 2.126 2.457 3.893 3.23 1.215.552 2.595 1.049 4.142 1.491 1.546.442 3.34.911 5.383 1.408 1.823.442 3.617.884 5.384 1.325 1.767.442 3.327 1.036 4.68 1.781 1.353.746 2.457 1.698 3.313 2.858.856 1.159 1.284 2.678 1.284 4.555 0 1.822-.428 3.369-1.284 4.639a10.353 10.353 0 0 1-3.271 3.106c-1.326.8-2.803 1.38-4.432 1.739a22.092 22.092 0 0 1-4.762.538c-5.025 0-8.877-1.118-11.555-3.354-2.678-2.236-4.017-5.757-4.017-10.561h-1.657c0 5.357 1.45 9.277 4.349 11.762 2.899 2.485 7.192 3.727 12.88 3.727a25.16 25.16 0 0 0 5.508-.621c1.849-.414 3.506-1.091 4.969-2.029a11.228 11.228 0 0 0 3.562-3.645c.911-1.491 1.367-3.313 1.367-5.466 0-2.044-.401-3.7-1.201-4.97a10.085 10.085 0 0 0-3.148-3.148c-1.297-.828-2.761-1.477-4.39-1.946a260.226 260.226 0 0 0-4.928-1.367 838.954 838.954 0 0 0-6.088-1.573 37.055 37.055 0 0 1-4.845-1.574c-1.436-.608-2.582-1.477-3.438-2.609-.856-1.132-1.284-2.747-1.284-4.846 0-.386.111-1.077.332-2.07.221-.994.745-2.002 1.573-3.024.829-1.021 2.099-1.932 3.811-2.733 1.711-.801 4.058-1.201 7.04-1.201 2.043 0 3.907.221 5.591.663 1.684.441 3.134 1.145 4.348 2.112 1.215.966 2.154 2.195 2.817 3.686.662 1.49.993 3.313.993 5.466Zm38.35 0h1.657c0-4.749-1.381-8.2-4.142-10.353-2.761-2.154-6.516-3.231-11.264-3.231-2.651 0-4.887.332-6.71.994-1.822.663-3.313 1.519-4.472 2.568-1.16 1.049-1.988 2.209-2.485 3.479-.497 1.27-.746 2.485-.746 3.644 0 2.319.415 4.169 1.243 5.55.828 1.38 2.126 2.457 3.893 3.23 1.215.552 2.595 1.049 4.141 1.491 1.546.442 3.341.911 5.384 1.408 1.822.442 3.617.884 5.384 1.325 1.767.442 3.327 1.036 4.68 1.781 1.353.746 2.457 1.698 3.313 2.858.856 1.159 1.284 2.678 1.284 4.555 0 1.822-.428 3.369-1.284 4.639a10.356 10.356 0 0 1-3.272 3.106c-1.325.8-2.802 1.38-4.431 1.739a22.101 22.101 0 0 1-4.763.538c-5.025 0-8.876-1.118-11.554-3.354-2.679-2.236-4.018-5.757-4.018-10.561h-1.656c0 5.357 1.449 9.277 4.348 11.762 2.899 2.485 7.193 3.727 12.88 3.727a25.16 25.16 0 0 0 5.508-.621c1.85-.414 3.507-1.091 4.97-2.029a11.248 11.248 0 0 0 3.562-3.645c.911-1.491 1.366-3.313 1.366-5.466 0-2.044-.4-3.7-1.201-4.97a10.092 10.092 0 0 0-3.147-3.148c-1.298-.828-2.761-1.477-4.39-1.946a260.332 260.332 0 0 0-4.929-1.367 839.984 839.984 0 0 0-6.087-1.573 37.022 37.022 0 0 1-4.846-1.574c-1.436-.608-2.581-1.477-3.437-2.609-.856-1.132-1.284-2.747-1.284-4.846 0-.386.11-1.077.331-2.07.221-.994.746-2.002 1.574-3.024.828-1.021 2.098-1.932 3.81-2.733 1.712-.801 4.059-1.201 7.041-1.201 2.043 0 3.906.221 5.59.663 1.685.441 3.134 1.145 4.349 2.112 1.215.966 2.153 2.195 2.816 3.686.663 1.49.994 3.313.994 5.466Z" style="fill: rgb(13, 84, 142);" class="fills"/><g class="strokes"><path d="M4.321 60.148V31.82h35.368v-1.656H4.321V4.321h37.604V2.665H2.665v59.139h39.592v-1.656H4.321ZM74.146 19.23 59.485 38.529 45.156 19.23h-2.154l15.489 20.542-16.98 22.032h1.988l15.986-20.79 16.069 20.79h2.07L60.562 39.772 76.133 19.23h-1.987Zm8.448 57.152V49.877h.166c.994 3.865 2.954 6.971 5.88 9.318 2.927 2.347 6.654 3.52 11.182 3.52 2.927 0 5.522-.593 7.786-1.781a16.565 16.565 0 0 0 5.674-4.845c1.518-2.043 2.678-4.418 3.479-7.123.8-2.706 1.201-5.55 1.201-8.532 0-3.202-.414-6.157-1.243-8.862-.828-2.706-2.029-5.053-3.603-7.041a16.57 16.57 0 0 0-5.715-4.638c-2.236-1.104-4.763-1.657-7.579-1.657-2.153 0-4.155.318-6.005.953-1.85.635-3.492 1.532-4.928 2.692a18.201 18.201 0 0 0-3.727 4.1 18.865 18.865 0 0 0-2.402 5.177h-.166V19.23h-1.657v57.152h1.657Zm17.228-15.241c-5.19 0-9.359-1.78-12.507-5.342-3.147-3.562-4.721-8.683-4.721-15.365 0-2.761.387-5.383 1.16-7.868.773-2.485 1.891-4.666 3.354-6.544a16.122 16.122 0 0 1 5.425-4.473c2.154-1.104 4.584-1.656 7.289-1.656 2.761 0 5.177.552 7.248 1.656a14.709 14.709 0 0 1 5.135 4.515c1.353 1.905 2.375 4.086 3.065 6.543s1.035 5.066 1.035 7.827c0 2.485-.317 4.956-.952 7.413-.635 2.458-1.616 4.666-2.941 6.627a16.007 16.007 0 0 1-5.094 4.804c-2.07 1.242-4.569 1.863-7.496 1.863Zm27.251.663V37.701a23.5 23.5 0 0 1 .994-6.792c.662-2.209 1.684-4.155 3.064-5.839 1.381-1.684 3.134-3.01 5.26-3.976 2.126-.966 4.652-1.367 7.579-1.201v-1.657c-2.54-.055-4.763.221-6.668.829-1.905.607-3.548 1.435-4.928 2.484-1.381 1.05-2.485 2.278-3.313 3.686a16.47 16.47 0 0 0-1.823 4.515h-.165V19.23h-1.657v42.574h1.657Zm18.968-20.955h35.616c.11-2.927-.18-5.743-.87-8.449-.69-2.706-1.795-5.108-3.313-7.206-1.519-2.098-3.479-3.783-5.881-5.053s-5.26-1.905-8.573-1.905c-2.374 0-4.693.497-6.957 1.491-2.264.994-4.252 2.444-5.964 4.349-1.712 1.905-3.092 4.238-4.141 6.999-1.049 2.761-1.574 5.908-1.574 9.442 0 3.148.359 6.088 1.077 8.821.718 2.734 1.822 5.108 3.313 7.124 1.491 2.015 3.41 3.575 5.756 4.679 2.347 1.105 5.177 1.629 8.49 1.574 4.86 0 8.946-1.366 12.259-4.1 3.313-2.733 5.273-6.585 5.881-11.554h-1.657c-.718 4.693-2.554 8.213-5.508 10.56-2.954 2.347-6.668 3.52-11.14 3.52-3.037 0-5.605-.524-7.703-1.573-2.099-1.049-3.81-2.485-5.136-4.307-1.325-1.823-2.305-3.962-2.94-6.42-.635-2.457-.98-5.121-1.035-7.992ZM180 39.192h-33.959c.165-2.982.717-5.66 1.656-8.034.939-2.375 2.167-4.404 3.686-6.088 1.518-1.684 3.285-2.968 5.301-3.852 2.015-.883 4.183-1.325 6.502-1.325 2.761 0 5.191.511 7.289 1.532 2.098 1.022 3.851 2.416 5.259 4.183 1.409 1.767 2.472 3.824 3.189 6.171.718 2.347 1.077 4.818 1.077 7.413Zm36.03-7.372h1.657c0-4.749-1.38-8.2-4.141-10.353-2.761-2.154-6.516-3.231-11.265-3.231-2.651 0-4.887.332-6.709.994-1.822.663-3.313 1.519-4.473 2.568-1.159 1.049-1.988 2.209-2.485 3.479-.497 1.27-.745 2.485-.745 3.644 0 2.319.414 4.169 1.242 5.55.829 1.38 2.126 2.457 3.893 3.23 1.215.552 2.595 1.049 4.142 1.491 1.546.442 3.34.911 5.383 1.408 1.823.442 3.617.884 5.384 1.325 1.767.442 3.327 1.036 4.68 1.781 1.353.746 2.457 1.698 3.313 2.858.856 1.159 1.284 2.678 1.284 4.555 0 1.822-.428 3.369-1.284 4.639a10.353 10.353 0 0 1-3.271 3.106c-1.326.8-2.803 1.38-4.432 1.739a22.092 22.092 0 0 1-4.762.538c-5.025 0-8.877-1.118-11.555-3.354-2.678-2.236-4.017-5.757-4.017-10.561h-1.657c0 5.357 1.45 9.277 4.349 11.762 2.899 2.485 7.192 3.727 12.88 3.727a25.16 25.16 0 0 0 5.508-.621c1.849-.414 3.506-1.091 4.969-2.029a11.228 11.228 0 0 0 3.562-3.645c.911-1.491 1.367-3.313 1.367-5.466 0-2.044-.401-3.7-1.201-4.97a10.085 10.085 0 0 0-3.148-3.148c-1.297-.828-2.761-1.477-4.39-1.946a260.226 260.226 0 0 0-4.928-1.367 838.954 838.954 0 0 0-6.088-1.573 37.055 37.055 0 0 1-4.845-1.574c-1.436-.608-2.582-1.477-3.438-2.609-.856-1.132-1.284-2.747-1.284-4.846 0-.386.111-1.077.332-2.07.221-.994.745-2.002 1.573-3.024.829-1.021 2.099-1.932 3.811-2.733 1.711-.801 4.058-1.201 7.04-1.201 2.043 0 3.907.221 5.591.663 1.684.441 3.134 1.145 4.348 2.112 1.215.966 2.154 2.195 2.817 3.686.662 1.49.993 3.313.993 5.466Zm38.35 0h1.657c0-4.749-1.381-8.2-4.142-10.353-2.761-2.154-6.516-3.231-11.264-3.231-2.651 0-4.887.332-6.71.994-1.822.663-3.313 1.519-4.472 2.568-1.16 1.049-1.988 2.209-2.485 3.479-.497 1.27-.746 2.485-.746 3.644 0 2.319.415 4.169 1.243 5.55.828 1.38 2.126 2.457 3.893 3.23 1.215.552 2.595 1.049 4.141 1.491 1.546.442 3.341.911 5.384 1.408 1.822.442 3.617.884 5.384 1.325 1.767.442 3.327 1.036 4.68 1.781 1.353.746 2.457 1.698 3.313 2.858.856 1.159 1.284 2.678 1.284 4.555 0 1.822-.428 3.369-1.284 4.639a10.356 10.356 0 0 1-3.272 3.106c-1.325.8-2.802 1.38-4.431 1.739a22.101 22.101 0 0 1-4.763.538c-5.025 0-8.876-1.118-11.554-3.354-2.679-2.236-4.018-5.757-4.018-10.561h-1.656c0 5.357 1.449 9.277 4.348 11.762 2.899 2.485 7.193 3.727 12.88 3.727a25.16 25.16 0 0 0 5.508-.621c1.85-.414 3.507-1.091 4.97-2.029a11.248 11.248 0 0 0 3.562-3.645c.911-1.491 1.366-3.313 1.366-5.466 0-2.044-.4-3.7-1.201-4.97a10.092 10.092 0 0 0-3.147-3.148c-1.298-.828-2.761-1.477-4.39-1.946a260.332 260.332 0 0 0-4.929-1.367 839.984 839.984 0 0 0-6.087-1.573 37.022 37.022 0 0 1-4.846-1.574c-1.436-.608-2.581-1.477-3.437-2.609-.856-1.132-1.284-2.747-1.284-4.846 0-.386.11-1.077.331-2.07.221-.994.746-2.002 1.574-3.024.828-1.021 2.098-1.932 3.81-2.733 1.712-.801 4.059-1.201 7.041-1.201 2.043 0 3.906.221 5.59.663 1.685.441 3.134 1.145 4.349 2.112 1.215.966 2.153 2.195 2.816 3.686.663 1.49.994 3.313.994 5.466Z" style="fill: none; stroke-width: 4.24; stroke: rgb(13, 84, 142); stroke-opacity: 1;" class="stroke-shape"/></g></g></g></svg>