<svg width="150" xmlns="http://www.w3.org/2000/svg" height="150" fill="none"><g data-testid="Group"><rect rx="0" ry="0" width="150" height="150" style="fill: rgb(177, 178, 181); fill-opacity: 0;" fill="none" class="fills" data-testid="Rectangle"/><g data-testid="layer1" style="fill: rgb(0, 0, 0);"><path d="M124.93 74.844c-2.604-1.454-11.294-6.292-19.311-10.751-8.018-4.46-15.002-8.389-15.521-8.733-.855-.565-1.568-1.864-7.537-13.729-7.122-14.158-10.797-21.209-11.047-21.194-.087.006-.999 1.202-2.027 2.66-10.036 14.231-13.481 19.014-13.682 18.997-.081-.006-.596-.643-1.144-1.414-.548-.772-2.704-3.638-4.792-6.369-3.384-4.428-3.761-5.016-3.473-5.426.177-.253 4.408-4.802 9.402-10.109C60.792 13.469 65.59 8.334 66.46 7.365c.87-.97 1.823-1.9 2.118-2.066.764-.432 2.195-.389 2.872.084.482.339 12.228 14.323 19.648 23.392 1.121 1.371 3.473 4.242 5.227 6.381 1.754 2.139 5.824 7.115 9.044 11.059a1608.66 1608.66 0 0 0 7.862 9.566 854.245 854.245 0 0 1 6.347 7.755c11.168 13.787 11.294 13.957 10.398 13.953-.171-.001-2.442-1.191-5.046-2.645Z" style="fill: rgb(15, 142, 217);" class="fills" data-testid="svg-path"/><path d="M27.223 132.458c.367.141.402-1.046.402-13.683v-13.838l-10.901-.108c-11.242-.111-12.8-.243-13.624-1.154-.549-.606-.286-1.144.81-1.655 3.448-1.606 6.236-3.117 8.377-4.538 3.031-2.011 7.261-5.607 8.49-7.215l.909-1.19-9.801-.142C1.365 88.784.171 88.645.016 87.56c-.098-.69.178-.883 2.816-1.963 5.427-2.221 10.694-5.737 14.944-9.976l2.249-2.242-8.597-.125c-9.245-.134-10.001-.24-10.17-1.43-.064-.443.136-.651.996-1.039 7.158-3.231 9.563-4.613 13.343-7.671 2.104-1.702 4.552-4.136 4.553-4.526 0-.088-2.761-.128-6.136-.089-5.217.06-6.224.013-6.728-.318-1.219-.798-.709-1.57 1.9-2.874 4.139-2.07 11.091-7.451 13.797-10.679l.964-1.151-4.851-.125c-4.938-.126-5.674-.277-5.674-1.157 0-.192.819-1.384 1.821-2.648 2.375-2.999 9.342-12.763 13.775-19.305.715-1.055 1.4-1.806 1.649-1.806.532-.002.825.379 5.457 7.1 3.239 4.7 9.378 13.05 11.603 15.781 1.374 1.688.065 2.099-6.306 1.984-2.243-.04-4.078-.008-4.078.073.001.473 2.181 2.791 4.462 4.746 3.228 2.766 7.449 5.612 10.824 7.299 1.864.932 2.55 1.401 2.605 1.785.161 1.128-.336 1.216-7.65 1.348l-6.877.125 1.994 2.002c3.626 3.643 7.91 6.519 13.339 8.956 3.343 1.5 3.881 1.867 3.645 2.482-.33.861-1.409.98-10.132 1.122l-8.597.14 2.745 2.741c4.098 4.092 9.157 7.467 14.173 9.452 1.296.512 2.553 1.15 2.795 1.417.421.465.419.507-.053.978-.797.798-3.923 1.025-12.906.939-4.469-.043-8.124-.002-8.124.092 0 .353 4.126 4.512 5.863 5.908 3.45 2.776 7.811 5.369 11.4 6.781 2.104.827 2.718 1.658 1.647 2.231-1.404.751-4.841.98-14.736.981l-9.905.001v31.18l-1.094-.398-1.122-.498-1.121-.498-1.495-.872-.997-.623-.803-.733Z" style="fill: rgb(110, 158, 107);" class="fills" data-testid="svg-path"/><path d="M149.448 77.649c-.276-.221-6.194-3.683-10.813-6.324-13.197-7.548-12.109-6.822-13.474-8.982-2.331-3.689-15.876-24.107-16.614-25.044l-.744-.945-.864 1.009c-.475.555-.967.946-1.093.868-.221-.137-3.977-4.553-6.143-7.224l-1.057-1.303 2.524-2.707c1.389-1.489 2.93-3.193 3.425-3.787 1.018-1.222 1.937-1.786 2.913-1.786.872 0 1.73.906 6.707 7.076 2.193 2.719 5.093 6.304 6.444 7.967 1.351 1.663 4.399 5.434 6.775 8.38 16.804 20.846 18.085 22.423 20.411 25.137l2.003 2.337.152 1.814v1.246l-.552 2.268Z" style="fill: rgb(126, 224, 255);" class="fills" data-testid="svg-path"/><path d="M65.922 144.18c-.072-.187-.715-1.141-1.429-2.12-1.271-1.742-1.295-1.806-1.138-3.086.366-2.994.462-5.85.2-6.011-.226-.14-5.491 4.481-6.862 6.023-.61.686-1.135 2.205-1.149 3.321l-.011.902c-2.34-.051-3.461-.3-5.941-1.21.09.016.202-1.074.249-2.422l.086-2.451 1.444-1.765c1.71-2.089 3.809-5.503 4.16-6.764.324-1.166.316-2.433-.034-5.511-.24-2.105-.349-2.489-.674-2.364-.214.082-.862.214-1.44.293-2.058.282-4.485-1.602-4.283-3.325.071-.607.245-.718 1.699-1.085 2.439-.617 3.151-1.08 5.735-3.726 2.595-2.659 3.996-3.536 6.344-3.97.944-.175 6.406-.273 15.314-.275 11.398-.003 14.125-.07 15.424-.376 3.104-.731 5.733-2.151 9.832-5.307 1.806-1.391 2.395-1.98 2.27-2.27-.34-.786-.847-2.883-.846-3.498.001-.347.119-1.051.261-1.565.204-.733.383-.934.831-.934.701 0 1.981.979 3.143 2.403.984 1.206 1.693 1.513 2.499 1.081.485-.259.534-.431.399-1.41-.418-3.05-2.425-6.998-4.905-9.65-5.555-5.937-14.026-7.975-20.353-4.895-2.373 1.156-3.967 2.538-5.348 4.64-.579.88-1.157 1.601-1.284 1.601-.391 0 .017-2.319.659-3.754 1.636-3.654 5.593-6.715 10.356-8.012 2.538-.69 7.62-.74 10.003-.098 2.242.604 6.3 2.588 8.131 3.976 5.289 4.008 8.936 10.489 9.484 16.853l.16 1.862 3.054 3.039c1.68 1.671 3.177 3.269 3.328 3.551.397.742-.261 2.168-1.249 2.71-2.065 1.132-1.767 1.021-4.434.868l-2.86-.411c-1.121-.301-2.071-.151-2.596.41-.722.77-.957 1.478-1.567 4.727-.291 1.545-.702 3.427-.914 4.181-.94 3.339-3.241 6.82-6.071 9.186-4.276 3.574-4.466 3.919-4.466 8.115l.152 1.396.249.872.25.748-1.122.498-1.37.498-1.371.374-2.088.387c.076-.071-1.815-6.806-2.176-7.746l-.287-.748-.374.872c-.51 1.192-1.972 6.575-2.191 8.071-.141.964-.11 1.158-.11 1.282l-1.37.374-1.62.374-1.495.249-1.488.095c.269-.166.357-1.559.423-6.698l.084-6.488-5.441.002-5.441.002-2.181 4.2c-1.245 2.398-2.18 4.504-2.18 4.908 0 .416.579 1.679 1.403 3.061l1.404 2.351-1.659.062-1.744-.125-1.869-.124-1.599-.224Z" style="fill: rgb(126, 115, 111);" class="fills" data-testid="svg-path"/></g></g></svg>