<svg width="54" xmlns="http://www.w3.org/2000/svg" height="54" fill="none"><g data-testid="Noïta Logo Vektor" style="fill: rgb(0, 0, 0);"><g data-testid="Ebene_1" style="fill: rgb(0, 0, 0);"><g data-testid="svg-circle"><defs><linearGradient id="a" x1=".255" y1=".504" x2=".994" y2=".506"><stop offset="0" stop-color="#28143C"/><stop offset="1" stop-color="#733042"/></linearGradient><pattern patternUnits="userSpaceOnUse" x="0" y="0" width="54" height="54" id="b"><rect width="54" height="54" style="fill: url(&quot;#a&quot;);"/></pattern></defs><g class="fills"><circle cx="27" cy="27" fill="url(#b)" class="cls-3" r="27"/></g></g><g data-testid="svg-circle"><defs><linearGradient id="c" x1=".132" y1=".498" x2=".99" y2=".501"><stop offset="0" stop-color="#28143C"/><stop offset="1" stop-color="#DC554B"/></linearGradient><pattern patternUnits="userSpaceOnUse" x="10.319" y="7.965" width="38.471" height="38.471" id="d"><rect width="38.471" height="38.471" style="fill: url(&quot;#c&quot;);"/></pattern></defs><g class="fills"><circle cx="29.555" cy="27.2" fill="url(#d)" class="cls-2" r="19.236"/></g></g><g class="fills" data-testid="svg-path"><path d="M4.137 32.137c0-.11.066-.241.241-.503.721-1.072 1.137-2.712 1.137-4.265 0-1.313-.328-2.559-.985-3.347-.306-.349-.59-.721-.59-1.005 0-.438.853-.679 1.881-.679 1.378 0 2.078.897 2.821.897.743 0 1.662-.897 3.259-.897 1.443 0 2.58.853 2.58 2.493 0 .963-.219 1.379-.219 2.778 0 1.4.394 2.953 1.116 4.025.175.262.24.393.24.503 0 .459-1.005.831-2.624.831-1.618 0-2.624-.372-2.624-.831 0-.11.065-.241.24-.503.722-1.072 1.116-2.69 1.116-4.331 0-2.012-.634-3.106-1.903-3.106-.437 0-.94.132-1.531.394a15.825 15.825 0 0 0-.262 2.8c0 1.553.394 3.171 1.115 4.243.175.262.241.393.241.503 0 .459-1.006.831-2.624.831-1.619 0-2.625-.372-2.625-.831Z" class="cls-1" style="fill: rgb(255, 255, 255); fill-opacity: 1;"/></g><g class="fills" data-testid="svg-path"><path d="M16.078 27.696c0-3.521 2.778-5.358 5.315-5.358 2.537 0 5.315 1.837 5.315 5.358s-2.778 5.359-5.315 5.359c-2.537 0-5.315-1.837-5.315-5.359Zm5.687 4.156c1.247 0 1.75-1.225 1.75-3.128 0-2.493-.678-5.183-2.494-5.183-1.246 0-1.749 1.224-1.749 3.127 0 2.494.677 5.184 2.493 5.184Z" class="cls-1" style="fill: rgb(255, 255, 255); fill-opacity: 1;"/></g><g class="fills" data-testid="svg-path"><path d="M27.604 17.701c.875 0 1.553.722 1.553 1.597 0 .874-.678 1.575-1.553 1.575-.919 0-1.618-.722-1.618-1.575a1.61 1.61 0 0 1 1.618-1.597Zm-.241 14.436c0-.11.066-.241.241-.503.721-1.072 1.093-2.778 1.093-4.331 0-2.253-1.247-3.696-1.247-4.134 0-.437.678-.831 2.056-.831 1.247 0 1.925.438 1.925 1.488s-.285 2.187-.285 3.477c0 1.553.372 3.259 1.094 4.331.175.262.24.393.24.503 0 .459-1.006.831-2.537.831s-2.581-.372-2.58-.831Zm4.353-14.436c.918 0 1.596.722 1.596 1.575s-.678 1.597-1.596 1.597c-.919 0-1.575-.744-1.575-1.597 0-.852.656-1.575 1.575-1.575Z" class="cls-1" style="fill: rgb(255, 255, 255); fill-opacity: 1;"/></g><g class="fills" data-testid="svg-path"><path d="M33.662 30.365c0-1.356.722-2.866.722-4.637 0-2.23-1.115-2.099-1.115-2.909 0-.874 1.881-2.143 2.515-2.143.459 0 .765.437.94.831.35.678.656 1.05 1.422 1.05h.787c.503 0 .766.284.766.612 0 .372-.263.635-.722.635h-2.253v4.221c0 2.427.459 3.193 1.378 3.193.765 0 1.487-.503 1.793-.503.197 0 .35.154.35.328 0 .875-1.772 2.013-3.631 2.013-1.553 0-2.952-.744-2.952-2.691Z" class="cls-1" style="fill: rgb(255, 255, 255); fill-opacity: 1;"/></g><g class="fills" data-testid="svg-path"><path d="M40.683 30.387c0-1.794 1.465-2.559 3.696-3.172 1.269-.35 2.1-1.028 2.1-2.296 0-.962-.481-1.487-1.422-1.487-.874 0-1.312.503-1.421 1.181-.131.853-.7 1.313-1.444 1.313-.831 0-1.29-.591-1.29-1.334 0-1.269 1.378-2.253 4.133-2.253 2.253 0 4.178.722 4.178 2.996 0 .897-.306 1.837-.306 3.128 0 1.291.415 2.122 1.115 2.821.263.263.372.394.372.591 0 .547-.897 1.072-1.968 1.072-1.51 0-1.422-1.028-2.231-1.028-.809 0-1.29 1.137-2.821 1.137-1.422 0-2.69-.985-2.691-2.669Zm4.199.568c.853 0 1.552-.722 1.552-1.837 0-.285-.043-.591-.131-.919a2.132 2.132 0 0 0-.634-.087c-1.203 0-2.121.502-2.121 1.53 0 .897.699 1.313 1.334 1.313Z" class="cls-1" style="fill: rgb(255, 255, 255); fill-opacity: 1;"/></g></g></g></svg>