<!DOCTYPE svg PUBLIC "-//W3C//DTD SVG 1.1//EN" "http://www.w3.org/Graphics/SVG/1.1/DTD/svg11.dtd">
<!-- Uploaded to: SVG Repo, www.svgrepo.com, Transformed by: SVG Repo Mixer Tools -->
<svg width="800px" height="800px" viewBox="-0.96 -0.96 25.92 25.92" fill="none" xmlns="http://www.w3.org/2000/svg">
<g id="SVGRepo_bgCarrier" stroke-width="0"/>
<g id="SVGRepo_tracerCarrier" stroke-linecap="round" stroke-linejoin="round"/>
<g id="SVGRepo_iconCarrier"> <path d="M10 5H7C5.89543 5 5 5.89543 5 7V16H19V13.5" stroke="#0d548e" stroke-width="2" stroke-linecap="round" stroke-linejoin="round"/> <path d="M17.4641 5C18.2043 5 18.8506 5.40213 19.1964 5.99984M17.4641 5C16.7239 5 16.0776 5.40212 15.7318 5.99983M17.4641 5V3M17.4641 11V8.96675M20.9282 5L19.1964 5.99984M14 9L15.7318 8.00017M20.9282 9L19.1965 8.0002M14 5L15.7318 5.99983M15.7318 8.00017C15.5615 7.70596 15.4641 7.36436 15.4641 7C15.4641 6.63564 15.5615 6.29404 15.7318 5.99983M15.7318 8.00017C16.1255 8.68075 16.7977 8.98015 17.4641 8.96675M17.4641 8.96675C18.1521 8.95291 18.8338 8.60565 19.1965 8.0002M19.1965 8.0002C19.3645 7.71972 19.4641 7.38383 19.4641 7C19.4641 6.63565 19.3667 6.29405 19.1964 5.99984" stroke="#0d548e" stroke-width="2" stroke-linecap="round"/> <path d="M3 16H21V17C21 18.1046 20.1046 19 19 19H5C3.89543 19 3 18.1046 3 17V16Z" stroke="#0d548e" stroke-width="2" stroke-linecap="round" stroke-linejoin="round"/> </g>
</svg>