<svg width="200" xmlns="http://www.w3.org/2000/svg" height="199.813" viewBox="1074 296 200 199.813" fill="none"><path d="M1167.132 495.575c-26.375-2.003-53.39-16.034-70.125-36.421-12.103-14.745-19.362-31.024-22.205-49.796-1.059-6.994-1.072-21.421-.024-28.067 4.932-31.305 23.155-57.517 50.752-73.001 20.118-11.289 45.746-15.062 69.488-10.231 23.995 4.882 46.107 18.729 60.077 37.62 9.082 12.28 14.762 25.643 17.871 42.044.897 4.731 1.022 6.851 1.033 17.601.012 10.67-.113 12.913-.98 17.655-5.02 27.445-20.25 50.796-42.918 65.803-10.115 6.696-19.807 11.066-30.783 13.879-10.079 2.583-22.148 3.676-32.186 2.914Zm19.247-4.568 4.522-.514.134-2.315.135-2.315 2.603-.136c2.58-.135 2.603-.125 2.61 1.132.011 2.089.592 2.618 2.329 2.12 1.18-.339 1.559-.725 1.739-1.775.217-1.265.366-1.349 2.61-1.478 1.782-.103 2.444.032 2.638.537.302.789.354.775 6.283-1.691l4.515-1.878-4.725-.13c-3.081-.085-4.847-.321-5.074-.679-.55-.865-.42-4.611.18-5.212.606-.606 3.28-.681 8.85-.247 3.636.283 3.736.322 3.767 1.469.017.647.171 1.527.34 1.954.265.668.467.698 1.44.214l1.131-.564.12-12.035c.102-10.152.016-12.122-.546-12.588-.517-.429-11.214-.549-47.42-.532-44.011.021-46.788.068-47.334.815-.443.607-.551 3.51-.459 12.336l.121 11.542 1.584 1.071 1.585 1.07.138-2.071.138-2.072 9.368-.04c5.153-.023 10.591-.108 12.085-.19 4.173-.228 4.3-.14 4.3 2.956v2.666l-1.674.314c-.92.172-5.962.184-11.204.027-8.422-.254-9.393-.212-8.357.362 2.665 1.475 7.026 2.828 8.443 2.62 2.133-.313 3.739.202 3.739 1.2 0 .822 1.138 1.383 2.829 1.396.583.005.792-.359.792-1.375v-1.382l2.377.137 2.376.137.138 1.901c.103 1.414.365 1.973 1.02 2.181 4.408 1.399 21.497 2.008 29.814 1.062Zm3.947-8.665c-.632-.462-.764-1.124-.653-3.282l.139-2.704h4.98l.136 2.902c.095 2.014-.043 3.015-.453 3.275-.895.568-3.26.459-4.149-.191Zm8.148 0c-.632-.462-.763-1.124-.652-3.282l.138-2.704h4.98l.137 2.902c.094 2.014-.044 3.015-.453 3.275-.896.568-3.261.459-4.15-.191Zm-20.545-8.803-1.472-.183v-3.14c0-3.447-.225-3.227 3.396-3.32l1.81-.046.136 3.128c.095 2.197-.04 3.239-.453 3.501-.597.38-.812.383-3.417.06Zm-47.914-1.263c-.157-.625-.149-2.051.019-3.169l.304-2.031h9.368l.155 2.432c.26 4.083.48 3.906-4.849 3.906-4.655 0-4.715-.014-4.997-1.138Zm13.245.836c-.166-.166-.302-1.573-.302-3.127v-2.825l2.529-.155c1.39-.085 2.613-.07 2.716.033.103.104.188 1.581.188 3.282v3.094h-2.415c-1.328 0-2.55-.136-2.716-.302Zm8.299-1.676c0-1.112-.099-2.294-.221-2.625-.411-1.117.521-1.787 2.833-2.036l2.298-.247.3 1.998c.165 1.099.231 2.598.148 3.33-.146 1.283-.247 1.336-2.755 1.467l-2.603.136Zm8.337 1.361c-.131-.339-.175-1.816-.099-3.282l.137-2.665h4.98l.133 3.282.133 3.282h-2.524c-1.712 0-2.6-.199-2.76-.617Zm8.389.277c-.013-.186-.136-1.537-.273-3-.293-3.128-.016-3.434 3.126-3.444l2.151-.007v6.791h-2.49c-1.37 0-2.501-.153-2.514-.34Zm16.414-2.919.133-3.305 2.362-.137c2.16-.124 2.386-.044 2.632.936.148.589.205 2.077.127 3.305l-.141 2.233-2.623.137-2.624.136Zm8.357 2.957c-.166-.166-.302-1.566-.302-3.111v-2.81l2.377-.245c1.852-.191 2.501-.084 2.943.482.721.926.737 4.728.022 5.443-.571.57-4.521.76-5.04.241Zm8.622.02c-.178-.177-.322-1.591-.322-3.143v-2.822l2.15-.191c3.25-.289 3.339-.199 3.188 3.212l-.133 2.999-2.28.134c-1.255.073-2.426-.012-2.603-.189Zm9.228-.344c-.322-.388-.49-1.652-.408-3.072.136-2.376.162-2.417 1.71-2.64.864-.124 2.86-.158 4.433-.074l2.862.153-.133 3.016-.133 3.016-3.892.13c-2.975.099-4.021-.025-4.439-.529Zm-80.623-12.502v-3.622h4.849l.275 2.949c.38 4.065.237 4.294-2.683 4.294h-2.441Zm8.148.022v-3.644h2.208c2.875 0 3.304.567 3.134 4.148l-.136 2.869-2.603.136-2.603.135Zm8.243.091.132-3.508h4.98l.132 3.508.132 3.508h-5.508Zm8.507-.091v-3.644h2.481c2.879 0 3.103.356 2.865 4.551l-.14 2.466-2.603.136-2.603.135Zm8.337 2.986c-.129-.338-.174-1.917-.099-3.509l.137-2.894h4.979l.133 3.508.132 3.508h-2.523c-1.706 0-2.6-.199-2.759-.613Zm8.413-2.533v-3.531c0-.187 1.171-.339 2.603-.339h2.603v6.79l-2.603.136-2.603.135Zm8.242-.362.132-3.508h4.98l.132 3.508.132 3.508h-5.508Zm8.439 1.379c-.087-1.194-.094-2.833-.016-3.643.138-1.439.189-1.471 2.35-1.471 1.214 0 2.306.159 2.426.353.12.195.27 1.773.334 3.509l.116 3.155-2.526.134-2.526.135Zm8.311-1.379.132-3.508h4.98l.132 3.508.132 3.508h-5.508Zm8.601 0 .132-3.508h4.98l.132 3.508.132 3.508h-5.508Zm8.601.023.132-3.531h4.98v6.79l-2.623.136-2.622.137Zm-91.538 4.491c0-12.402.092-12.971 2.272-14.138 1.145-.613 98.412-.623 99.556-.01.443.236 1.19.999 1.661 1.693.768 1.132.88 2.455 1.083 12.724l.226 11.459 2.716-1.925c14.959-10.606 26.438-24.939 33.527-41.86 13.901-33.179 7.939-72.949-14.952-99.732-8.416-9.846-17.444-16.988-28.498-22.543-46.074-23.156-100.027-9.381-127.13 32.458-14.021 21.644-18.76 46.488-13.69 71.761 4.106 20.462 16.85 41.665 32.82 54.603 2.863 2.319 9.663 7.162 10.07 7.172.186.004.339-5.244.339-11.662Zm88.275-24.745c-16.352-3.463-27.617-15.745-29.399-32.055-.894-8.183 1.024-17.829 4.83-24.29 3.462-5.879 10.725-12.415 16.681-15.012 12.596-5.494 29.989-4.316 40.218 2.721 2.807 1.932 7.507 6.333 7.507 7.03 0 .608-9.867 10.327-11.217 11.05-.98.525-1.601.2-4.204-2.204-4.727-4.365-11.977-6.56-18.07-5.471-13.907 2.485-21.575 17.987-15.413 31.156 1.702 3.636 5.587 7.74 8.833 9.33 8.83 4.323 17.785 2.791 24.624-4.213 1.768-1.81 3.503-3.193 4.007-3.193.488 0 1.995.967 3.349 2.15a187.968 187.968 0 0 0 5.503 4.566c1.672 1.328 3.041 2.685 3.041 3.015 0 .898-3.188 4.754-5.943 7.19-3.426 3.028-7.758 5.464-12.685 7.134-3.94 1.335-4.735 1.444-11.476 1.577-4.932.097-8.182-.056-10.186-.481Zm-111.94-36.333c-.148-20.093-.168-36.695-.045-36.894.123-.199 4.647-.362 10.054-.362h9.83l6.101 9.148c3.355 5.032 10.582 15.676 16.059 23.653l9.959 14.505.118-23.653.117-23.653h17.194v22.56c0 12.409.135 29.011.3 36.895l.299 14.333h-20.954l-14.216-21.389c-7.819-11.765-14.952-22.408-15.852-23.652l-1.636-2.262v47.303h-17.058Zm148.329-43.572c-3.017-1.209-6.277-2.709-7.243-3.332-.967-.624-4.304-3.704-7.417-6.846l-5.658-5.712-.227 2.388-.226 2.389-3.599-4.188c-1.979-2.303-3.711-4.186-3.848-4.185-.548.005-5.568 8.326-5.568 9.231 0 .533.66 2.555 1.467 4.493.806 1.938 1.386 3.604 1.287 3.703-.419.419-17.58-16.426-20.931-20.545-5.496-6.756-13.592-16.285-13.865-16.319-.133-.017-.235 2.567-.227 5.741.013 5.162-.137 6.298-1.422 10.752-2.012 6.97-4.268 13.041-4.681 12.597-.192-.206-.7-4.347-1.13-9.202-.43-4.855-.851-8.904-.936-8.998-.085-.094-2.793 1.688-6.018 3.96-3.225 2.272-6.165 4.246-6.533 4.387-.49.188-.023-1.948 1.753-8.015 1.332-4.549 2.36-8.333 2.285-8.408-.075-.076-2.444 2.462-5.265 5.639-6.694 7.539-11.99 12.455-16.743 15.541-9.145 5.937-11.198 6.891-9.106 4.231.527-.669.957-1.376.957-1.571 0-.507-4.539-5.408-5.009-5.408-.215 0-.889.734-1.499 1.631-1.679 2.471-9.243 10.879-10.567 11.747-1.114.729-1.156.726-.929-.083.131-.465.681-1.949 1.222-3.297.596-1.487.752-2.271.395-1.993-.324.252-2.524 1.985-4.889 3.852-5.256 4.148-5.916 4.496-11.318 5.977-6.087 1.668-6.408 1.536-2.856-1.169 5.624-4.284 11.89-9.445 20.573-16.945 4.723-4.079 8.699-7.416 8.836-7.416.137 0 2.185 1.831 4.55 4.069l4.299 4.07 2.621-2.372c1.441-1.304 5.552-5.122 9.134-8.483 6.195-5.813 23.254-21.259 24.933-22.575.712-.559 2.005.575 13.165 11.543 6.806 6.69 14.846 14.471 17.866 17.292l5.491 5.127 5.192-4.788c2.855-2.634 5.386-4.788 5.624-4.788.238 0 3.056 2.393 6.261 5.319 9.994 9.121 13.781 12.46 19.625 17.299 7.329 6.069 7.155 5.907 6.322 5.879-.365-.012-3.131-1.011-6.148-2.219Z" style="fill: rgb(133, 178, 206);" class="fills" data-testid="svg-path"/></svg>