<svg width="359.752" xmlns="http://www.w3.org/2000/svg" height="100" fill="none"><g data-testid="Group"><g data-testid="Group"><g data-testid="Ebene_1" style="fill: rgb(0, 0, 0);"><g class="fills" data-testid="svg-path"><path d="M121.019 74.501c0-.563.338-1.241 1.241-2.596 3.725-5.53 5.868-13.996 5.868-22.011 0-6.773-1.693-13.206-5.08-17.27-1.58-1.804-3.048-3.725-3.048-5.191 0-2.257 4.403-3.501 9.708-3.501 7.112 0 10.724 4.628 14.56 4.628 3.837 0 8.578-4.628 16.818-4.628 7.451 0 13.319 4.403 13.319 12.867 0 4.967-1.129 7.113-1.129 14.336s2.032 15.238 5.757 20.77c.902 1.355 1.241 2.033 1.241 2.596 0 2.371-5.191 4.289-13.544 4.289-8.354 0-13.545-1.918-13.545-4.289 0-.563.339-1.241 1.241-2.596 3.726-5.53 5.758-13.883 5.758-22.35 0-10.385-3.273-16.029-9.819-16.029-2.257 0-4.853.678-7.901 2.032-.791 4.403-1.355 9.256-1.355 14.45 0 8.014 2.032 16.367 5.758 21.897.902 1.355 1.241 2.033 1.241 2.596 0 2.371-5.192 4.289-13.545 4.289s-13.544-1.918-13.544-4.289Z" class="cls-1" style="fill: rgb(13, 84, 142); fill-opacity: 1;"/></g><g class="fills" data-testid="svg-path"><path d="M182.647 51.585c0-18.172 14.336-27.655 27.431-27.655 13.094 0 27.43 9.483 27.43 27.655s-14.336 27.655-27.43 27.655c-13.095 0-27.431-9.48-27.431-27.655Zm29.349 21.448c6.435 0 9.031-6.321 9.031-16.143 0-12.867-3.498-26.753-12.868-26.753-6.434 0-9.03 6.321-9.03 16.143 0 12.867 3.498 26.753 12.867 26.753Z" class="cls-1" style="fill: rgb(13, 84, 142); fill-opacity: 1;"/></g><g class="fills" data-testid="svg-path"><path d="M242.133 0c4.514 0 8.015 3.725 8.015 8.239 0 4.514-3.501 8.129-8.015 8.129-4.741 0-8.353-3.726-8.353-8.129 0-4.402 3.612-8.239 8.353-8.239Zm-1.243 74.501c0-.563.338-1.241 1.241-2.596 3.725-5.53 5.643-14.335 5.643-22.35 0-11.626-6.435-19.077-6.435-21.334 0-2.257 3.498-4.289 10.611-4.289 6.434 0 9.932 2.257 9.932 7.676 0 5.419-1.468 11.288-1.468 17.947 0 8.015 1.918 16.818 5.644 22.35.902 1.355 1.241 2.033 1.241 2.596 0 2.371-5.192 4.289-13.095 4.289-7.903 0-13.32-1.918-13.314-4.289ZM263.353 0c4.742 0 8.24 3.725 8.24 8.128 0 4.403-3.498 8.24-8.24 8.24-4.741 0-8.128-3.84-8.128-8.24S258.612 0 263.353 0Z" class="cls-1" style="fill: rgb(13, 84, 142); fill-opacity: 1;"/></g><g class="fills" data-testid="svg-path"><path d="M272.932 66.112c0-6.999 3.726-14.788 3.726-23.93 0-11.512-5.758-10.835-5.758-15.013 0-4.514 9.708-11.063 12.981-11.063 2.371 0 3.95 2.257 4.853 4.289 1.807 3.501 3.386 5.419 7.337 5.419h4.064c2.596 0 3.95 1.469 3.95 3.162 0 1.918-1.354 3.273-3.725 3.273h-11.626v21.787c0 12.528 2.37 16.481 7.112 16.481 3.95 0 7.676-2.596 9.255-2.596 1.016 0 1.805.791 1.805 1.694 0 4.514-9.144 10.385-18.739 10.385-8.014 0-15.237-3.837-15.235-13.888Z" class="cls-1" style="fill: rgb(13, 84, 142); fill-opacity: 1;"/></g><g class="fills" data-testid="svg-path"><path d="M309.633 65.471c0-9.256 7.562-13.206 19.077-16.368 6.546-1.807 10.838-5.305 10.838-11.851 0-4.967-2.485-7.676-7.337-7.676-4.514 0-6.774 2.596-7.337 6.096-.678 4.403-3.612 6.774-7.451 6.774-4.289 0-6.66-3.048-6.66-6.885 0-6.546 7.112-11.626 21.334-11.626 11.626 0 21.559 3.725 21.559 15.465 0 4.628-1.58 9.481-1.58 16.143 0 6.662 2.146 10.949 5.758 14.561 1.355 1.354 1.918 2.032 1.918 3.048 0 2.823-4.628 5.53-10.158 5.53-7.789 0-7.337-5.305-11.512-5.305-4.175 0-6.66 5.868-14.56 5.868-7.338 0-13.884-5.08-13.889-13.774Zm21.67 2.934c4.403 0 8.015-3.725 8.015-9.483 0-1.468-.225-3.048-.678-4.741-1.129-.339-2.143-.453-3.273-.453-6.207 0-10.948 2.596-10.948 7.901 0 4.628 3.611 6.773 6.884 6.776Z" class="cls-1" style="fill: rgb(13, 84, 142); fill-opacity: 1;"/></g></g><g data-testid="Noïta Logo Vektor" style="fill: rgb(0, 0, 0);"><g data-testid="Ebene_1" style="fill: rgb(0, 0, 0);"><g class="fills" data-testid="svg-path"><path d="M7.661 59.512c0-.202.122-.445.446-.931 1.336-1.985 2.105-5.023 2.105-7.898 0-2.431-.607-4.739-1.822-6.197-.567-.647-1.094-1.337-1.094-1.863 0-.809 1.58-1.256 3.483-1.256 2.552 0 3.848 1.661 5.225 1.661 1.376 0 3.078-1.661 6.034-1.661 2.674 0 4.779 1.58 4.779 4.617 0 1.782-.405 2.552-.405 5.144s.729 5.468 2.066 7.453c.323.486.445.729.445.931 0 .851-1.863 1.539-4.86 1.539-2.997 0-4.86-.688-4.86-1.539 0-.202.122-.445.445-.931 1.337-1.985 2.066-4.982 2.066-8.02 0-3.726-1.174-5.751-3.523-5.751-.81 0-1.741.243-2.835.729a29.25 29.25 0 0 0-.486 5.185c0 2.875.729 5.872 2.066 7.857.324.486.445.729.445.931 0 .851-1.862 1.539-4.86 1.539-2.997 0-4.86-.688-4.86-1.539Z" class="cls-1" style="fill: rgb(13, 84, 142); fill-opacity: 1;"/></g><g class="fills" data-testid="svg-path"><path d="M29.775 51.289c0-6.52 5.143-9.923 9.842-9.923 4.698 0 9.842 3.403 9.842 9.923 0 6.521-5.144 9.923-9.842 9.923-4.699 0-9.842-3.401-9.842-9.923Zm10.53 7.696c2.309 0 3.24-2.268 3.24-5.792 0-4.617-1.255-9.599-4.616-9.599-2.309 0-3.241 2.268-3.241 5.792 0 4.617 1.255 9.599 4.617 9.599Z" class="cls-1" style="fill: rgb(13, 84, 142); fill-opacity: 1;"/></g><g class="fills" data-testid="svg-path"><path d="M51.119 32.78c1.619 0 2.875 1.337 2.875 2.957 0 1.619-1.256 2.916-2.875 2.916-1.702 0-2.997-1.337-2.997-2.916 0-1.58 1.295-2.957 2.997-2.957Zm-.446 26.732c0-.202.121-.445.445-.931 1.337-1.985 2.025-5.144 2.025-8.02 0-4.171-2.309-6.845-2.309-7.655 0-.81 1.255-1.539 3.807-1.539 2.309 0 3.564.81 3.564 2.755 0 1.944-.527 4.05-.527 6.439 0 2.876.688 6.035 2.025 8.02.324.486.445.729.445.931 0 .851-1.862 1.539-4.698 1.539-2.836 0-4.779-.688-4.777-1.539Zm8.06-26.732c1.701 0 2.956 1.337 2.956 2.917a2.946 2.946 0 0 1-2.956 2.956c-1.701 0-2.917-1.377-2.917-2.956s1.216-2.917 2.917-2.917Z" class="cls-1" style="fill: rgb(13, 84, 142); fill-opacity: 1;"/></g><g class="fills" data-testid="svg-path"><path d="M62.17 56.502c0-2.511 1.337-5.306 1.337-8.586 0-4.131-2.066-3.888-2.066-5.387 0-1.62 3.483-3.97 4.657-3.97.851 0 1.418.81 1.742 1.539.648 1.256 1.215 1.945 2.632 1.945h1.458c.932 0 1.418.527 1.418 1.134 0 .688-.486 1.175-1.337 1.175H67.84v7.817c0 4.495.85 5.914 2.552 5.914 1.417 0 2.754-.932 3.32-.932.365 0 .648.284.648.608 0 1.619-3.281 3.726-6.724 3.726-2.875 0-5.467-1.377-5.466-4.983Z" class="cls-1" style="fill: rgb(13, 84, 142); fill-opacity: 1;"/></g><g class="fills" data-testid="svg-path"><path d="M75.339 56.272c0-3.321 2.713-4.739 6.845-5.873 2.348-.649 3.888-1.904 3.888-4.252 0-1.782-.891-2.755-2.632-2.755-1.62 0-2.431.932-2.633 2.188-.243 1.58-1.296 2.43-2.673 2.43-1.539 0-2.39-1.093-2.39-2.47 0-2.349 2.552-4.172 7.655-4.172 4.172 0 7.736 1.337 7.736 5.549 0 1.661-.567 3.402-.567 5.793 0 2.39.77 3.928 2.066 5.224.486.486.688.729.688 1.094 0 1.013-1.661 1.984-3.645 1.984-2.795 0-2.632-1.903-4.131-1.903-1.498 0-2.389 2.105-5.224 2.105-2.633 0-4.982-1.823-4.983-4.942Zm7.775 1.053c1.58 0 2.876-1.337 2.876-3.403 0-.527-.081-1.094-.243-1.701a3.904 3.904 0 0 0-1.175-.163c-2.227 0-3.928.932-3.928 2.835 0 1.661 1.296 2.431 2.47 2.432Z" class="cls-1" style="fill: rgb(13, 84, 142); fill-opacity: 1;"/></g></g></g></g><path d="M50 0c27.596 0 50 22.404 50 50s-22.404 50-50 50S0 77.596 0 50 22.404 0 50 0Zm0 4.45C24.86 4.45 4.45 24.86 4.45 50c0 25.14 20.41 45.55 45.55 45.55 25.14 0 45.55-20.41 45.55-45.55C95.55 24.86 75.14 4.45 50 4.45Z" style="fill: rgb(13, 84, 142); fill-opacity: 1;" class="fills" data-testid="Exclude"/></g></svg>