<svg width="584" xmlns="http://www.w3.org/2000/svg" height="591" fill="none"><g data-testid="logo-portfolio-nc" style="fill: rgb(0, 0, 0);"><path d="M270.862 579.489C164.791 572.284 69.257 503.392 26.49 403.264 7.364 358.486.097 309.147 5.429 260.267 13.637 185.024 51.621 116.668 112.3 67.94c33.924-27.242 75.634-47.365 117.621-56.746 42.381-9.469 90.425-8.624 133.911 2.354 19.833 5.007 47.452 15.615 62.755 24.102 12.342 6.845 15.786 8.916 25.292 15.207 32.846 21.734 63.909 53.712 84.711 87.203 36.65 59.007 50.699 129.446 39.691 199-6.962 43.986-26.541 88.884-55.819 128-11.018 14.72-37.046 41.054-51.583 52.188-39.15 29.988-84.114 49.496-132.007 57.273-22.086 3.586-43.036 4.528-66.01 2.968Zm52.017-18.972c30.732-3.45 64.655-13.9 93-28.649 57.499-29.92 102.407-79.115 126.477-138.553 8.953-22.108 15.706-47.99 17.087-65.49l.612-7.765-63.338-63.039c-34.835-34.671-69.188-68.731-76.338-75.688l-13-12.65-32.781 31.939-32.782 31.938h-12.468c-6.858 0-12.469-.304-12.469-.676 0-.68 77.36-77.137 86.303-85.295l4.803-4.381 76.697 76.426 76.697 76.426.325-8c.432-10.626-1.4-29.989-4.352-46-13.408-72.732-60.019-139.764-124.336-178.809-65.808-39.95-147.668-50.31-220.137-27.86-43.423 13.453-83.819 38.467-116.105 71.896-31.135 32.237-54.761 73.724-66.215 116.273-5.614 20.852-9.166 47.327-8.504 63.382l.324 7.881 58.5-57.858c86.094-85.151 95.999-94.872 97.03-95.232.563-.197 1.043 10.125 1.204 25.847l.266 26.176 57.085-56.528L293.549 79.7l36.915 36.971 36.915 36.97-6.902 6.71-6.902 6.709-29.833-30.494-29.832-30.494-9.256 8.994c-5.091 4.947-20.96 20.485-35.265 34.53-26.922 26.431-74.066 71.963-83.26 80.413l-5.25 4.825v-25.187c0-21.332-.214-25.064-1.403-24.386-1.564.891-28.845 27.621-93.308 91.427l-43.212 42.77 1.894 12.801c12.845 86.847 70.521 164.784 150.529 203.409 28.939 13.97 61.757 22.813 96 25.868 11.621 1.036 37.808.518 51.5-1.019Zm61.306-111.442c-28.028-5.084-51.343-20.529-67.101-44.449-12.314-18.691-16.707-34.587-15.91-57.566.573-16.495 2.685-25.497 9.151-39 5.467-11.416 11.305-19.662 20.654-29.172 34.156-34.745 87.956-40.222 128.4-13.072 7.693 5.164 18.505 14.569 18.484 16.079-.009.641-3.395 3.579-7.523 6.53l-7.508 5.365-4.726-4.406c-22.025-20.533-54.455-27.123-83.282-16.922-24.49 8.667-44.062 29.364-52.102 55.098-2.034 6.511-2.343 9.545-2.343 23 0 13.542.293 16.373 2.313 22.402 11.02 32.895 36.824 54.497 69.892 58.511 23.557 2.859 50.545-5.957 65.242-21.312 1.895-1.98 3.839-3.601 4.32-3.601.768 0 12.631 7.95 15.19 10.18 1.365 1.189-7.661 10.083-15.475 15.248-23.433 15.492-51.921 21.759-77.676 17.087ZM111.544 398.31c-.364-27.637-.663-72.179-.663-98.981l-.001-48.731 2.563-.643c3.774-.947 5.49.262 13.071 9.205 7.817 9.222 68.28 78.331 87.866 100.429 7.15 8.068 20.425 23.028 29.5 33.246l16.5 18.577.255-80.926.256-80.926H279.572l.654 12.157c.359 6.687.654 51.483.654 99.548v87.391l-6.209-.298-6.208-.298-13.042-14.56c-7.173-8.008-26.525-29.833-43.006-48.5-16.48-18.667-41.455-46.748-55.5-62.402l-25.535-28.461-.257 77.211-.256 77.212h-18.661Zm107.335-179.241c0-2.45 70.699-84.537 72.771-84.493 1.184.025 24.522 25.025 23.922 25.625-.301.302-7.272 2.24-15.49 4.308l-14.942 3.76-21.88 17.33c-42.101 33.346-44.381 35.065-44.381 33.47Zm78 .005c0-.842 24.935-49.711 25.896-50.753.375-.406 3.814 2.433 7.643 6.309l6.961 7.047-13.5 12.942c-16.926 16.228-27 25.351-27 24.455Z" style="fill: rgb(147, 147, 147); fill-opacity: 1;" class="fills" data-testid="svg-path"/></g></svg>