<?xml version="1.0" encoding="UTF-8" standalone="no"?>
<!-- Created with Inkscape (http://www.inkscape.org/) -->

<svg
   version="1.1"
   id="svg1"
   width="584"
   height="591"
   viewBox="0 0 584 591"
   sodipodi:docname="logo-portfolio-nc.svg"
   inkscape:version="1.3.2 (091e20e, 2023-11-25, custom)"
   xmlns:inkscape="http://www.inkscape.org/namespaces/inkscape"
   xmlns:sodipodi="http://sodipodi.sourceforge.net/DTD/sodipodi-0.dtd"
   xmlns="http://www.w3.org/2000/svg"
   xmlns:svg="http://www.w3.org/2000/svg">
  <defs
     id="defs1" />
  <sodipodi:namedview
     id="namedview1"
     pagecolor="#505050"
     bordercolor="#eeeeee"
     borderopacity="1"
     inkscape:showpageshadow="0"
     inkscape:pageopacity="0"
     inkscape:pagecheckerboard="0"
     inkscape:deskcolor="#505050"
     showgrid="false"
     inkscape:zoom="1.3891709"
     inkscape:cx="291.90073"
     inkscape:cy="295.5"
     inkscape:window-width="1920"
     inkscape:window-height="1017"
     inkscape:window-x="1912"
     inkscape:window-y="-8"
     inkscape:window-maximized="1"
     inkscape:current-layer="g1" />
  <g
     inkscape:groupmode="layer"
     inkscape:label="Image"
     id="g1">
    <path
       style="fill:#000000"
       d="M 270.86195,579.48861 C 164.79058,572.28412 69.256529,503.39161 26.48953,403.26421 7.3636974,358.48624 0.09706941,309.14673 5.4291904,260.26711 13.637254,185.02367 51.620649,116.66784 112.2998,67.940216 146.2244,40.697506 187.93383,20.574854 229.92088,11.19412 c 42.38138,-9.4688335 90.42553,-8.6242255 133.91084,2.35413 19.83291,5.007043 47.45244,15.614656 62.75532,24.101936 12.34176,6.84498 15.78615,8.91583 25.29238,15.20633 32.84541,21.73462 63.90901,53.712424 84.71078,87.203784 36.64963,59.00683 50.69859,129.44537 39.69052,199 -6.96145,43.986 -26.54083,88.88395 -55.81907,128 -11.01793,14.72009 -37.04554,41.05337 -51.58223,52.18802 -39.14999,29.98769 -84.11484,49.49611 -132.00748,57.27268 -22.08584,3.58619 -43.03583,4.52804 -66.00999,2.96761 z m 52.01747,-18.97138 c 30.73191,-3.44985 64.65462,-13.90011 93,-28.64965 57.49851,-29.91941 102.40651,-79.11499 126.47682,-138.55217 8.95308,-22.10797 15.70583,-47.99033 17.08653,-65.49028 l 0.61263,-7.76483 -63.33799,-63.03886 c -34.83589,-34.67137 -69.18799,-68.73123 -76.33799,-75.68858 l -13,-12.64973 -32.78164,31.93859 -32.78164,31.93858 h -12.46836 c -6.8576,0 -12.46836,-0.30417 -12.46836,-0.67594 0,-0.68084 77.36008,-77.13761 86.30271,-85.29498 l 4.80272,-4.38098 76.69728,76.42595 76.69729,76.42595 0.32476,-8 c 0.43139,-10.62667 -1.40049,-29.98954 -4.35197,-46 C 543.94427,168.32819 497.33323,101.29636 433.01625,62.251426 367.20768,22.300996 285.34785,11.940941 212.87942,34.391236 169.45577,47.843626 129.06009,72.857806 96.773776,106.28723 65.639229,138.52412 42.013367,180.01098 30.558828,222.5603 c -5.613503,20.85206 -9.165717,47.32669 -8.504174,63.38156 l 0.324761,7.88156 58.500001,-57.85883 c 86.093724,-85.15013 95.998524,-94.87145 97.029454,-95.23204 0.56285,-0.19687 1.04356,10.12497 1.20379,25.84792 l 0.26676,26.17567 57.08462,-56.5281 57.08462,-56.5281 36.91538,36.97074 36.91538,36.97073 -6.90243,6.70944 -6.90242,6.70945 -29.83237,-30.49429 -29.83237,-30.49428 -9.2557,8.99428 c -5.09064,4.94686 -20.95999,20.48518 -35.26521,34.52961 -26.92182,26.43101 -74.06592,71.96341 -83.2595,80.41314 l -5.25,4.82522 v -25.18653 c 0,-21.3325 -0.21478,-25.06416 -1.40361,-24.38684 -1.56427,0.89122 -28.84471,27.62176 -93.307891,91.42704 l -43.211493,42.77049 1.89331,12.80108 c 12.844904,86.84721 70.52105,164.78423 150.529684,203.40877 28.93841,13.97015 61.75642,22.81309 96,25.86759 11.62038,1.03652 37.80768,0.5187 51.5,-1.01835 z m 61.30586,-111.44241 c -28.02793,-5.08415 -51.34349,-20.52844 -67.10176,-44.44838 -12.31353,-18.69107 -16.70666,-34.58724 -15.90925,-57.56614 0.57241,-16.49491 2.68462,-25.49714 9.15062,-39 5.46703,-11.4167 11.30476,-19.66215 20.65408,-29.17268 34.1559,-34.74481 87.95569,-40.22186 128.40045,-13.0717 7.69286,5.16415 18.50482,14.56948 18.48366,16.07894 -0.009,0.64099 -3.39459,3.5796 -7.52356,6.53025 l -7.50722,5.3648 -4.72644,-4.40632 c -22.02478,-20.53305 -54.45522,-27.12234 -83.28189,-16.9214 -24.49011,8.66636 -44.06206,29.36397 -52.10152,55.09811 -2.03402,6.51086 -2.34303,9.54422 -2.34303,23 0,13.54122 0.29221,16.37222 2.3123,22.40192 11.02061,32.8952 36.82442,54.497 69.89225,58.51069 23.55698,2.85928 50.54495,-5.95668 65.24162,-21.312 1.89539,-1.98033 3.83975,-3.60061 4.3208,-3.60061 0.76747,0 12.63022,7.95011 15.18928,10.17946 1.36487,1.18901 -7.66096,10.08295 -15.47478,15.24866 -23.43302,15.49156 -51.9212,21.75813 -77.67561,17.0864 z M 111.5439,398.3103 c -0.36427,-27.6375 -0.6628,-72.17893 -0.66339,-98.98095 l -0.001,-48.73095 2.56369,-0.64344 c 3.77368,-0.94713 5.48994,0.26156 13.07073,9.20517 7.81679,9.22203 68.2797,78.33045 87.86558,100.42935 7.15,8.0674 20.425,23.0278 29.5,33.24533 l 16.5,18.57734 0.25588,-80.92592 0.25588,-80.92593 h 9.34044 9.34045 l 0.65367,12.157 c 0.35953,6.68635 0.65368,51.48283 0.65368,99.54772 v 87.39071 l -6.20825,-0.29771 -6.20825,-0.29772 -13.04175,-14.56027 c -7.17296,-8.00814 -26.52575,-29.83314 -43.0062,-48.5 -16.48044,-18.66685 -41.45544,-46.74757 -55.5,-62.4016 l -25.53555,-28.46187 -0.25617,77.21187 -0.25617,77.21187 h -9.33043 -9.33044 z M 218.87942,219.06894 c 0,-2.44968 70.69854,-84.53704 72.7706,-84.49321 1.18367,0.025 24.52217,25.02513 23.92208,25.62522 -0.3016,0.30161 -7.27219,2.24038 -15.49019,4.3084 l -14.94183,3.76002 -21.88033,17.32999 c -42.10122,33.34565 -44.38033,35.06444 -44.38033,33.46958 z m 78,0.005 c 0,-0.84153 24.93474,-49.71072 25.89566,-50.75249 0.37459,-0.4061 3.81381,2.43275 7.64271,6.30854 l 6.96163,7.04739 -13.5,12.94199 c -16.92688,16.22723 -27,25.35089 -27,24.45505 z"
       id="path1" />
  </g>
</svg>
