<svg width="458.065" xmlns="http://www.w3.org/2000/svg" height="100" fill="none"><g data-testid="Group"><g data-testid="Group"><rect rx="0" ry="0" width="100" height="100" style="fill: rgb(255, 255, 255); fill-opacity: 0;" fill="none" class="fills" data-testid="Rectangle"/><g data-testid="layer1" style="fill: rgb(0, 0, 0);"><path d="M83.287 49.896c-1.736-.969-7.53-4.194-12.874-7.167-5.346-2.973-10.002-5.593-10.348-5.822-.57-.377-1.045-1.243-5.024-9.153-4.748-9.439-7.198-14.139-7.365-14.129-.058.003-.666.801-1.351 1.773-6.691 9.487-8.988 12.676-9.122 12.665-.054-.004-.397-.429-.762-.943-.366-.515-1.803-2.425-3.195-4.246-2.256-2.952-2.507-3.344-2.315-3.617.118-.169 2.938-3.202 6.268-6.74 3.329-3.537 6.527-6.961 7.107-7.607.581-.647 1.216-1.266 1.412-1.377.51-.288 1.464-.26 1.915.056.322.225 8.152 9.548 13.099 15.595a6739.527 6739.527 0 0 1 9.514 11.626c2.147 2.629 4.506 5.499 5.241 6.378.736.879 2.64 3.205 4.232 5.169 7.445 9.191 7.529 9.305 6.932 9.302-.114 0-1.628-.794-3.364-1.763ZM18.148 88.305c.245.094.269-.697.269-9.122v-9.225l-7.268-.072c-7.494-.074-8.533-.162-9.082-.769-.366-.405-.191-.763.54-1.103 2.299-1.072 4.157-2.078 5.584-3.026 2.021-1.341 4.841-3.738 5.66-4.81l.606-.793-6.534-.095C.91 59.189.114 59.097.011 58.373c-.066-.46.119-.588 1.877-1.308 3.618-1.481 7.13-3.825 9.963-6.651l1.499-1.495-5.731-.083c-6.163-.089-6.667-.16-6.781-.953-.042-.296.091-.434.665-.693 4.772-2.154 6.375-3.075 8.895-5.114 1.403-1.135 3.035-2.757 3.035-3.018 0-.058-1.84-.085-4.09-.059-3.479.04-4.15.009-4.485-.211-.813-.533-.473-1.047 1.266-1.917 2.759-1.38 7.394-4.967 9.198-7.119l.643-.767-3.234-.083c-3.292-.085-3.783-.185-3.783-.772 0-.128.546-.923 1.214-1.766 1.583-1.999 6.228-8.508 9.184-12.869.476-.704.933-1.204 1.099-1.205.354-.001.549.253 3.638 4.734 2.159 3.133 6.252 8.7 7.735 10.521.916 1.125.043 1.399-4.204 1.323-1.495-.027-2.719-.006-2.719.048.001.315 1.454 1.861 2.975 3.164 2.152 1.844 4.966 3.741 7.216 4.866 1.243.621 1.7.934 1.737 1.19.107.752-.224.811-5.1.899l-4.585.083 1.329 1.335c2.418 2.428 5.274 4.346 8.893 5.97 2.229 1 2.588 1.245 2.43 1.655-.22.574-.939.653-6.755.748l-5.731.093 1.83 1.827c2.732 2.729 6.105 4.979 9.449 6.302.863.342 1.702.767 1.863.945.28.31.279.338-.035.652-.532.532-2.616.683-8.605.626-2.978-.029-5.416-.002-5.416.061.001.236 2.752 3.008 3.909 3.939 2.3 1.85 5.208 3.579 7.601 4.52 1.402.552 1.811 1.106 1.098 1.487-.936.501-3.228.654-9.825.655H22.57V90.72l-.73-.265-.747-.332-.748-.332-.996-.582-.665-.415-.536-.489ZM99.632 51.766c-.184-.148-4.129-2.455-7.209-4.216-8.798-5.032-8.072-4.548-8.982-5.988-1.554-2.46-10.584-16.071-11.076-16.696l-.496-.63-.576.673c-.317.37-.645.63-.729.578-.147-.091-2.651-3.035-4.096-4.816l-.704-.869 1.683-1.804c.926-.993 1.953-2.129 2.283-2.525.679-.814 1.291-1.19 1.942-1.19.581 0 1.153.604 4.471 4.717 1.462 1.813 3.396 4.203 4.296 5.311.901 1.109 2.933 3.623 4.517 5.587 11.203 13.897 12.057 14.949 13.607 16.758l1.336 1.558.101 1.209v.831l-.368 1.512ZM43.948 96.12c-.048-.125-.477-.761-.953-1.413-.847-1.162-.863-1.204-.758-2.058.244-1.996.307-3.9.133-4.007-.151-.093-3.661 2.987-4.574 4.015-.407.458-.757 1.47-.766 2.214l-.008.602c-1.56-.034-2.307-.2-3.961-.807.06.011.135-.716.166-1.615l.058-1.634.963-1.176c1.139-1.393 2.539-3.669 2.772-4.51.216-.777.211-1.622-.022-3.674-.16-1.403-.233-1.659-.449-1.576-.143.055-.575.143-.96.196-1.373.188-2.991-1.068-2.856-2.217.048-.405.163-.479 1.133-.723 1.626-.412 2.101-.72 3.823-2.484 1.73-1.773 2.664-2.358 4.229-2.647.63-.117 4.272-.182 10.21-.183 7.598-.002 9.417-.047 10.283-.251 2.069-.487 3.822-1.434 6.554-3.538 1.204-.927 1.597-1.32 1.514-1.513-.227-.524-.565-1.923-.564-2.332 0-.231.079-.701.174-1.044.136-.488.255-.623.554-.623.467 0 1.32.653 2.095 1.602.656.805 1.129 1.009 1.666.721.323-.172.356-.287.266-.939-.279-2.034-1.617-4.666-3.27-6.434-3.703-3.958-9.35-5.316-13.569-3.263-1.582.77-2.644 1.692-3.565 3.093-.386.587-.772 1.067-.856 1.067-.26 0 .011-1.546.439-2.502 1.091-2.436 3.729-4.477 6.905-5.341 1.691-.461 5.079-.494 6.668-.066 1.495.402 4.2 1.726 5.421 2.651 3.526 2.672 5.957 6.992 6.322 11.235l.107 1.242 2.036 2.025c1.12 1.114 2.118 2.18 2.219 2.368.264.494-.174 1.445-.833 1.806-1.377.755-1.178.681-2.956.579l-1.907-.274c-.747-.201-1.38-.101-1.73.273-.482.514-.638.986-1.045 3.152-.194 1.03-.468 2.284-.609 2.787-.627 2.226-2.161 4.547-4.048 6.124-2.85 2.383-2.977 2.613-2.977 5.41l.101.931.166.581.167.499-.748.332-.913.332-.914.249-1.393.258c.052-.047-1.21-4.537-1.45-5.164l-.191-.499-.249.582c-.341.794-1.315 4.383-1.461 5.38-.094.643-.074.772-.074.855l-.913.249-1.08.25-.997.166-.992.063c.179-.111.238-1.039.282-4.465l.056-4.326-3.627.002-3.628.001-1.453 2.8c-.83 1.599-1.454 3.003-1.454 3.272 0 .277.386 1.119.936 2.041l.936 1.567-1.106.041-1.163-.083-1.246-.083-1.066-.149Z" style="fill: rgb(0, 0, 0); fill-opacity: 1;" class="fills" data-testid="svg-path"/></g></g><g data-testid="Mountify" style="fill: rgb(0, 0, 0);"><path d="m153.238 74.098-19.902-43.272h.826l-2.808 27.995c-.275 2.917-.302 5.175-.082 6.771.22 1.542.771 2.643 1.651 3.303.936.606 2.203.991 3.799 1.157a9.05 9.05 0 0 1 .33 1.899c.056.716.083 1.266.083 1.652a89.276 89.276 0 0 0-4.542-.248h-7.019a53.64 53.64 0 0 1-2.973.082c-.936.055-1.789.111-2.56.166 0-.386.027-.936.082-1.652a9.046 9.046 0 0 1 .331-1.899c1.486-.166 2.642-.523 3.468-1.074.881-.606 1.569-1.734 2.065-3.386.495-1.651.881-4.156 1.156-7.515l2.642-29.398c.166-1.982.083-3.524-.247-4.625-.276-1.156-.854-1.982-1.735-2.477-.825-.496-2.009-.743-3.551-.743a8.914 8.914 0 0 1-.33-1.817 21.224 21.224 0 0 1-.082-1.734c.55.055 1.183.11 1.899.165.716 0 1.459.027 2.23.082h4.211a26.974 26.974 0 0 1 2.065-.082l2.147-.165 21.636 47.814h-1.817l18.829-47.814c.66.055 1.348.11 2.064.165.716 0 1.431.027 2.147.082H183.545a26.974 26.974 0 0 1 2.065-.082l2.147-.165c0 .55-.028 1.128-.083 1.734a10.54 10.54 0 0 1-.33 1.817c-1.927 0-3.441.578-4.542 1.734-1.046 1.101-1.404 3.303-1.073 6.606l2.973 30.307c.275 2.698.633 4.79 1.073 6.276.44 1.487 1.046 2.533 1.817 3.138.826.606 1.872.964 3.138 1.074.165.551.275 1.156.33 1.817.055.66.083 1.266.083 1.817a135.67 135.67 0 0 0-2.23-.166c-.826 0-1.707-.027-2.642-.082H177.93a80.075 80.075 0 0 1-3.634.082c-1.156.055-2.202.111-3.138.166 0-.496.028-1.074.083-1.735.11-.66.248-1.266.413-1.816 1.761-.166 3.028-.523 3.798-1.074.826-.55 1.294-1.486 1.404-2.808.166-1.321.11-3.193-.165-5.615l-3.138-30.06h.909L156.624 73.52a5.08 5.08 0 0 1-1.569.413c-.55.11-1.156.165-1.817.165Zm61.121 0c-3.744 0-7.02-.798-9.827-2.395-2.808-1.651-4.982-3.936-6.524-6.854-1.542-2.973-2.312-6.441-2.312-10.405 0-3.744.798-7.102 2.395-10.075 1.596-2.973 3.798-5.313 6.606-7.019 2.808-1.707 6.028-2.56 9.662-2.56 3.909 0 7.239.825 9.992 2.477 2.808 1.652 4.955 3.964 6.441 6.937 1.487 2.918 2.23 6.331 2.23 10.24 0 3.744-.798 7.102-2.395 10.075-1.541 2.973-3.716 5.312-6.524 7.019-2.752 1.707-6.001 2.56-9.744 2.56Zm.66-3.964c3.304 0 5.753-1.349 7.35-4.046 1.597-2.753 2.395-6.304 2.395-10.653 0-3.413-.523-6.359-1.569-8.836-.991-2.533-2.34-4.46-4.047-5.781-1.706-1.376-3.578-2.064-5.615-2.064-3.193 0-5.588 1.293-7.185 3.881-1.541 2.587-2.312 5.946-2.312 10.075 0 3.688.441 6.854 1.322 9.496.935 2.588 2.229 4.57 3.881 5.946 1.651 1.322 3.578 1.982 5.78 1.982Zm39.906 3.551c-3.689 0-6.579-1.073-8.671-3.22-2.092-2.148-3.138-5.974-3.138-11.479v-12.47c0-1.927-.276-3.358-.826-4.294-.551-.991-2.092-1.514-4.625-1.569 0-.606.028-1.129.083-1.569.11-.496.275-.991.495-1.487 1.707-.11 3.551-.44 5.533-.991 2.037-.55 3.689-1.156 4.955-1.816.496.165.909.523 1.239 1.073.385.496.578 1.349.578 2.56v18.746c0 3.689.495 6.524 1.486 8.506 1.046 1.982 2.836 2.973 5.368 2.973 2.753 0 5.038-1.156 6.854-3.469 1.872-2.312 2.808-5.863 2.808-10.653v-8.423c0-1.927-.358-3.358-1.073-4.294-.661-.991-2.368-1.514-5.12-1.569 0-.606.027-1.129.082-1.569.055-.496.22-.991.496-1.486a39.284 39.284 0 0 0 6.276-.826c2.092-.496 3.743-1.019 4.955-1.569.495.165.908.523 1.238 1.073.386.496.578 1.349.578 2.56v23.949l-6.441 3.055a10.258 10.258 0 0 1-1.156 2.147 17.763 17.763 0 0 1-1.652 1.9c-1.431 1.431-2.945 2.504-4.542 3.22-1.596.661-3.523.991-5.78.991Zm14.782.413a4.946 4.946 0 0 1-1.487-1.156c-.385-.551-.578-1.762-.578-3.634 0-.605.028-1.459.083-2.56.11-1.101.358-2.642.743-4.624h6.028c0 1.266.11 2.34.331 3.221.22.825.688 1.431 1.404 1.816.77.386 1.899.578 3.385.578 0 .551-.027 1.184-.082 1.9a7.321 7.321 0 0 1-.413 1.899c-1.376.055-2.973.33-4.79.826-1.817.44-3.358 1.018-4.624 1.734Zm22.417-18.415v-9.167c0-1.321-.138-2.395-.413-3.221-.275-.825-.853-1.458-1.734-1.899-.881-.44-2.23-.688-4.047-.743 0-.606.055-1.156.165-1.652.111-.495.303-.963.579-1.404 1.706-.11 3.661-.44 5.863-.991 2.202-.55 3.936-1.156 5.202-1.816.496.165.909.523 1.239 1.073.385.496.578 1.349.578 2.56l-7.432 17.26ZM324 62.867c0 2.863.385 4.79 1.156 5.781.826.936 2.065 1.404 3.716 1.404.165.495.276 1.018.331 1.569.055.55.082 1.211.082 1.982a75.047 75.047 0 0 0-4.129-.248h-8.341a76.539 76.539 0 0 1-3.468.082 294.67 294.67 0 0 0-2.89.166c0-.771.027-1.432.082-1.982.055-.606.166-1.129.331-1.569 1.982 0 3.413-.496 4.294-1.487.936-1.046 1.404-2.945 1.404-5.698V50.315c0-3.909-.716-6.552-2.147-7.928-1.432-1.431-3.276-2.147-5.533-2.147-1.432 0-2.863.468-4.294 1.404-1.432.881-2.643 2.34-3.634 4.377-.936 1.982-1.404 4.652-1.404 8.01v8.836c0 2.753.413 4.652 1.239 5.698.826.991 2.312 1.487 4.459 1.487.165.495.275 1.018.331 1.569.055.55.082 1.211.082 1.982a134.39 134.39 0 0 0-2.808-.166c-1.101 0-2.257-.027-3.468-.082h-7.019a76.616 76.616 0 0 1-3.469.082 176.23 176.23 0 0 0-2.89.166c0-.771.027-1.432.082-1.982.056-.606.166-1.129.331-1.569 2.147 0 3.633-.496 4.459-1.487.826-1.046 1.239-2.945 1.239-5.698V46.516l7.432-8.093c0 .661-.027 1.404-.082 2.23a12.36 12.36 0 0 1-.496 2.642c.165-.275.33-.578.496-.908.165-.385.412-.798.743-1.239.936-1.266 2.422-2.56 4.459-3.881 2.092-1.376 4.597-2.064 7.515-2.064 2.092 0 4.019.44 5.781 1.321 1.816.826 3.275 2.23 4.376 4.211 1.101 1.927 1.652 4.57 1.652 7.928v14.204Zm25.408 11.231c-3.248 0-5.67-.826-7.267-2.477-1.541-1.707-2.312-4.432-2.312-8.176V41.066a19.398 19.398 0 0 0-2.56-.661c-.881-.22-2.01-.358-3.386-.413 0-.715.055-1.321.165-1.817a9.76 9.76 0 0 1 .578-1.816h5.203V25.458a12.437 12.437 0 0 0 3.22-1.321c1.102-.606 2.065-1.266 2.891-1.982.55.22.908.55 1.073.991.165.44.248 1.541.248 3.303v9.91h10.736c0 .55-.055 1.156-.166 1.816a7.673 7.673 0 0 1-.578 1.817 52.494 52.494 0 0 0-5.45.413 47.2 47.2 0 0 0-4.542.661v20.645c0 1.817.193 3.331.578 4.542.386 1.156.936 2.009 1.652 2.56.715.55 1.569.826 2.56.826 1.156 0 2.147-.165 2.973-.496a8.251 8.251 0 0 0 2.477-1.486c.716.826 1.129 1.734 1.239 2.725-.881 1.046-2.23 1.927-4.047 2.643-1.761.715-3.523 1.073-5.285 1.073Zm14.83-.495c0-.551.028-1.129.083-1.735.055-.66.165-1.266.33-1.816 2.202 0 3.689-.496 4.46-1.487.825-1.046 1.238-2.945 1.238-5.698V46.516c0-1.321-.137-2.395-.413-3.221-.22-.88-.77-1.541-1.651-1.981-.881-.441-2.257-.661-4.129-.661 0-.606.055-1.156.165-1.652a4.47 4.47 0 0 1 .578-1.404c.826 0 1.982-.137 3.468-.412a37.91 37.91 0 0 0 4.46-1.074c1.431-.44 2.477-.881 3.138-1.321.495.165.908.495 1.238.991.386.495.579 1.266.579 2.312v24.774c0 2.753.357 4.652 1.073 5.698.771.991 2.037 1.487 3.799 1.487a9.05 9.05 0 0 1 .33 1.899c.055.716.083 1.266.083 1.652a481.57 481.57 0 0 0-2.973-.166c-1.046 0-2.12-.027-3.221-.082h-6.441a64.582 64.582 0 0 1-3.221.082 481.57 481.57 0 0 0-2.973.166Zm9.167-48.145c-1.377 0-2.533-.468-3.469-1.404-.936-.936-1.404-2.064-1.404-3.386 0-1.486.496-2.697 1.487-3.633.991-.936 2.119-1.404 3.386-1.404 1.486 0 2.67.468 3.551 1.404.936.936 1.404 2.147 1.404 3.633 0 1.267-.496 2.395-1.487 3.386-.936.936-2.092 1.404-3.468 1.404Zm38.051 10.901c0 .55-.055 1.183-.165 1.899a5.143 5.143 0 0 1-.66 1.817c-1.597 0-3.111.11-4.542.33a19.264 19.264 0 0 0-3.799.826v-4.872h9.166Zm-15.855-3.304c0-4.129.826-7.569 2.477-10.322 1.707-2.808 3.882-4.9 6.524-6.276 2.643-1.377 5.395-2.065 8.258-2.065 2.147 0 3.771.22 4.872.661 1.102.385 2.093.853 2.973 1.404-.11 1.706-.192 3.386-.247 5.037a134.498 134.498 0 0 0-.083 4.625c-.716.22-1.486.385-2.312.495-.826.11-1.624.165-2.395.165 0-2.257-.496-4.129-1.486-5.615-.991-1.487-2.643-2.23-4.955-2.23-1.487 0-2.698.468-3.634 1.404-.881.881-1.541 2.175-1.982 3.881-.385 1.707-.578 3.799-.578 6.276v24.527h-7.432V33.055Zm1.239 3.304v4.707a21.738 21.738 0 0 0-4.212-.743c-1.431-.166-2.643-.248-3.634-.248 0-.716.083-1.377.248-1.982.22-.606.523-1.184.909-1.734h6.689Zm6.193 24.856c0 2.368.248 4.185.743 5.451.496 1.211 1.294 2.064 2.395 2.56 1.101.44 2.505.716 4.212.826.165.44.275.963.33 1.569.055.55.083 1.211.083 1.982-.826-.055-1.817-.111-2.973-.166-1.101 0-2.285-.027-3.551-.082H394.28c-2.092.055-3.689.137-4.79.248 0-.771.027-1.432.082-1.982.056-.606.166-1.129.331-1.569 1.486-.11 2.642-.358 3.468-.744.826-.44 1.404-1.156 1.734-2.147.331-1.046.496-2.477.496-4.294v-8.258h7.432v6.606Zm42.513-12.469c1.431-3.524 1.762-5.918.991-7.185-.716-1.321-2.285-2.202-4.707-2.642a11.876 11.876 0 0 1-.496-1.734 20.097 20.097 0 0 1-.082-1.817c1.266.055 2.56.11 3.881.165h8.671c1.376-.055 2.67-.11 3.881-.165 0 .55-.027 1.128-.082 1.734 0 .606-.138 1.211-.413 1.817-.991.22-1.845.605-2.56 1.156-.661.55-1.294 1.404-1.9 2.56-.605 1.156-1.348 2.78-2.229 4.872l-12.14 28.903c-1.541 3.744-2.945 6.772-4.211 9.084-1.212 2.312-2.368 4.074-3.469 5.285-1.046 1.212-2.119 2.037-3.22 2.478-1.046.44-2.203.66-3.469.66-1.651 0-2.973-.22-3.964-.66-.936-.441-1.679-.854-2.229-1.239-.221-.826-.303-1.872-.248-3.138.055-1.211.165-2.175.33-2.89a24.52 24.52 0 0 0 2.725.33c.881.11 1.735.165 2.56.165a9.438 9.438 0 0 0 4.542-1.156c1.487-.771 2.753-2.009 3.799-3.716.771-1.156 1.927-3.441 3.468-6.854 1.542-3.359 3.166-7.24 4.873-11.644l5.698-14.369Zm-9.662 26.343a941.386 941.386 0 0 0-4.212-9.166 2892.204 2892.204 0 0 0-4.129-9.332 244.73 244.73 0 0 0-3.468-7.515c-1.266-2.753-2.34-4.817-3.221-6.193-.826-1.377-1.624-2.34-2.395-2.891a5.588 5.588 0 0 0-2.477-1.073 12.071 12.071 0 0 1-.413-1.652 21.002 21.002 0 0 1-.083-1.899l4.79.165h9.827c2.092-.055 3.992-.11 5.698-.165 0 .715-.055 1.376-.165 1.982a5.095 5.095 0 0 1-.413 1.569c-2.973.495-4.679 1.376-5.12 2.642-.44 1.211.083 3.359 1.569 6.442a178.811 178.811 0 0 1 2.643 5.78 244.79 244.79 0 0 1 2.89 6.689 198.647 198.647 0 0 1 2.395 5.863l-3.716 8.754Z" style="fill: rgb(0, 0, 0); fill-opacity: 1;" class="fills" data-testid="svg-path"/></g></g></svg>