<svg width="371" xmlns="http://www.w3.org/2000/svg" height="99.907" id="screenshot-d58ab6fe-773d-80b6-8004-c5adc8765c67" fill="none" version="1.1"><style>@font-face{font-family:&apos;Poppins&apos;;font-style:normal;font-weight:600;font-display:block;src:url(https://design.penpot.app/internal/gfonts/font/poppins/v21/pxiByp8kv8JHgFVrLEj6Z1JlFc-K.woff2) format(&apos;woff2&apos;);unicode-range:U+0100-02AF, U+0304, U+0308, U+0329, U+1E00-1E9F, U+1EF2-1EFF, U+2020, U+20A0-20AB, U+20AD-20C0, U+2113, U+2C60-2C7F, U+A720-A7FF}@font-face{font-family:&apos;Poppins&apos;;font-style:normal;font-weight:600;font-display:block;src:url(https://design.penpot.app/internal/gfonts/font/poppins/v21/pxiByp8kv8JHgFVrLEj6Z1xlFQ.woff2) format(&apos;woff2&apos;);unicode-range:U+0000-00FF, U+0131, U+0152-0153, U+02BB-02BC, U+02C6, U+02DA, U+02DC, U+0304, U+0308, U+0329, U+2000-206F, U+2074, U+20AC, U+2122, U+2191, U+2193, U+2212, U+2215, U+FEFF, U+FFFD}</style><g id="shape-d58ab6fe-773d-80b6-8004-c5adc8765c67" data-testid="Group"><g id="shape-a76415d3-fc7e-80b7-8004-bdf5c05b287e" data-testid="svg-path"><path d="M46.566 99.787c-13.188-1.001-26.695-8.016-35.063-18.21C5.452 74.205 1.822 66.065.401 56.679c-.529-3.497-.536-10.71-.012-14.033C2.855 26.993 11.967 13.887 25.765 6.145 35.824.501 48.638-1.386 60.509 1.03c11.997 2.441 23.053 9.364 30.039 18.81 4.54 6.139 7.38 12.821 8.935 21.022.449 2.365.511 3.425.517 8.8.005 5.335-.057 6.457-.491 8.828C97 72.212 89.384 83.888 78.051 91.391c-5.058 3.348-9.904 5.533-15.392 6.94-5.039 1.291-11.074 1.838-16.093 1.456Zm9.623-2.283 2.261-.257.068-1.158.067-1.158 1.301-.067c1.29-.068 1.302-.063 1.305.565.006 1.045.297 1.309 1.165 1.06.59-.169.779-.362.87-.887.108-.632.183-.675 1.304-.739.891-.051 1.222.016 1.319.269.152.394.177.387 3.142-.846l2.258-.939-2.363-.065c-1.541-.042-2.423-.161-2.537-.34-.275-.432-.21-2.305.09-2.605.303-.303 1.64-.341 4.425-.124 1.818.142 1.868.161 1.884.734.008.324.085.764.17.978.132.334.233.349.719.106l.566-.282.06-6.017c.051-5.076.008-6.061-.273-6.294-.258-.215-5.607-.275-23.71-.266-22.006.01-23.394.034-23.667.408-.221.303-.276 1.754-.229 6.167l.06 5.771.792.536.792.535.069-1.036.069-1.035 4.685-.021c2.576-.011 5.295-.053 6.042-.094 2.087-.114 2.15-.071 2.15 1.478v1.332l-.837.157c-.46.087-2.981.093-5.602.014-4.211-.127-4.697-.106-4.178.181 1.332.737 3.512 1.414 4.221 1.31 1.067-.156 1.869.101 1.869.6 0 .411.569.692 1.415.698.291.002.396-.179.396-.688v-.69l1.188.068 1.189.068.069.951c.051.707.182.987.51 1.091 2.204.699 10.748 1.004 14.906.531Zm1.974-4.333c-.316-.231-.382-.562-.326-1.641l.069-1.352h2.49l.068 1.451c.048 1.007-.022 1.508-.226 1.637-.448.284-1.631.23-2.075-.095Zm4.074 0c-.316-.231-.382-.562-.326-1.641l.069-1.352h2.49l.068 1.451c.048 1.007-.021 1.508-.226 1.637-.448.284-1.63.23-2.075-.095Zm-10.273-4.402-.735-.091v-1.57c0-1.723-.113-1.613 1.697-1.66l.906-.023.067 1.564c.048 1.098-.019 1.62-.226 1.751-.299.189-.406.191-1.709.029Zm-23.957-.631c-.078-.313-.074-1.026.01-1.584l.152-1.016h4.684l.077 1.216c.131 2.041.24 1.953-2.424 1.953-2.327 0-2.358-.007-2.499-.569Zm6.623.418c-.083-.083-.151-.787-.151-1.563V85.58l1.264-.078c.696-.042 1.307-.035 1.358.017.052.052.094.79.094 1.641v1.547h-1.207c-.664 0-1.275-.068-1.358-.151Zm4.15-.838c0-.556-.05-1.147-.111-1.313-.205-.558.261-.893 1.416-1.017l1.15-.124.149.999c.083.55.116 1.299.074 1.665-.073.641-.123.668-1.377.734l-1.301.067Zm4.168.681c-.065-.17-.088-.908-.05-1.641l.069-1.333h2.49l.066 1.641.067 1.641h-1.262c-.856 0-1.3-.099-1.38-.308Zm4.195.138c-.007-.093-.069-.768-.137-1.5-.146-1.564-.008-1.717 1.563-1.722l1.075-.003v3.395h-1.245c-.684 0-1.25-.077-1.256-.17Zm8.206-1.46.067-1.652 1.181-.068c1.08-.063 1.193-.023 1.316.467.074.295.103 1.039.064 1.653l-.071 1.117-1.312.068-1.311.068Zm4.179 1.479c-.083-.083-.151-.783-.151-1.556v-1.404l1.189-.123c.926-.095 1.25-.042 1.471.241.36.463.368 2.364.011 2.721-.285.286-2.261.38-2.52.121Zm4.311.01c-.089-.088-.161-.796-.161-1.572v-1.41l1.075-.096c1.625-.145 1.669-.1 1.594 1.606l-.066 1.5-1.141.066c-.627.037-1.213-.005-1.301-.094Zm4.614-.172c-.161-.194-.245-.826-.204-1.536.068-1.188.081-1.209.855-1.32.432-.062 1.43-.079 2.217-.037l1.43.077-.066 1.508-.067 1.508-1.945.065c-1.488.049-2.011-.013-2.22-.265Zm-40.312-6.251v-1.811h2.425l.137 1.474c.19 2.033.119 2.148-1.341 2.148h-1.221Zm4.075.011v-1.822h1.104c1.437 0 1.651.284 1.567 2.074l-.068 1.434-1.302.068-1.301.068Zm4.121.045.066-1.754h2.49l.066 1.754.066 1.755h-2.754Zm4.253-.045v-1.822h1.241c1.439 0 1.551.178 1.432 2.276l-.07 1.232-1.301.068-1.302.068Zm4.169 1.493c-.065-.169-.087-.958-.049-1.754l.068-1.448h2.49l.066 1.754.066 1.755h-1.262c-.852 0-1.299-.1-1.379-.307Zm4.206-1.267v-1.765c0-.093.586-.17 1.302-.17h1.301v3.395l-1.301.068-1.302.068Zm4.122-.181.066-1.754h2.489l.067 1.754.066 1.755H53.02Zm4.219.69c-.043-.597-.047-1.417-.008-1.821.069-.72.095-.736 1.175-.736.607 0 1.153.08 1.213.177.06.097.135.886.167 1.754l.058 1.577-1.263.068-1.263.067Zm4.155-.69.066-1.754h2.49l.066 1.754.067 1.755h-2.755Zm4.301 0 .066-1.754h2.49l.066 1.754.066 1.755h-2.754Zm4.3.012.067-1.766h2.489v3.395l-1.311.069-1.311.068Zm-45.768 2.246c0-6.201.045-6.486 1.135-7.07.573-.306 49.206-.311 49.779-.005.221.119.595.5.83.847.384.566.44 1.228.541 6.362l.114 5.73 1.358-.963a48.457 48.457 0 0 0 16.763-20.93c6.951-16.59 3.969-36.474-7.476-49.866-4.208-4.923-8.722-8.494-14.249-11.272C50.052-4.288 23.075 2.6 9.524 23.519 2.514 34.342.144 46.764 2.679 59.4c2.053 10.231 8.425 20.833 16.41 27.301 1.431 1.16 4.831 3.581 5.035 3.586.093.003.17-2.621.17-5.83Zm44.137-12.373c-8.176-1.732-13.808-7.873-14.7-16.028-.447-4.091.512-8.914 2.415-12.145 1.732-2.939 5.363-6.207 8.341-7.506 6.298-2.746 14.994-2.158 20.109 1.361 1.404.966 3.753 3.166 3.753 3.515 0 .304-4.933 5.164-5.608 5.525-.49.262-.8.1-2.102-1.102-2.364-2.182-5.989-3.28-9.035-2.735-6.953 1.242-10.788 8.993-7.706 15.578.85 1.818 2.793 3.87 4.416 4.664 4.415 2.162 8.892 1.396 12.312-2.106.884-.905 1.752-1.597 2.003-1.597.244 0 .998.484 1.675 1.075a92.234 92.234 0 0 0 2.751 2.283c.837.665 1.521 1.343 1.521 1.508 0 .449-1.594 2.377-2.971 3.595-1.713 1.514-3.879 2.732-6.343 3.567-1.97.667-2.368.722-5.738.788-2.466.049-4.091-.028-5.093-.24Zm-55.97-18.166c-.074-10.047-.084-18.348-.023-18.448.062-.099 2.324-.181 5.027-.181h4.916l3.05 4.575a1334.45 1334.45 0 0 0 8.03 11.826l4.979 7.252.059-11.826.058-11.827h8.598V46.57c0 6.204.067 14.505.149 18.447l.15 7.167H36.977l-7.108-10.695c-3.909-5.882-7.476-11.204-7.926-11.826l-.818-1.131v23.652h-8.529Zm74.164-21.787c-1.508-.604-3.138-1.354-3.621-1.666-.484-.311-2.152-1.852-3.708-3.423l-2.83-2.856-.113 1.195-.113 1.194-1.799-2.094c-.99-1.151-1.856-2.093-1.924-2.092-.275.002-2.784 4.162-2.784 4.615 0 .267.33 1.278.733 2.247.403.968.693 1.801.644 1.851-.21.209-8.791-8.213-10.466-10.273-2.748-3.377-6.796-8.142-6.933-8.159-.066-.008-.117 1.283-.113 2.871.007 2.58-.069 3.149-.711 5.375-1.006 3.485-2.134 6.521-2.341 6.299-.095-.103-.35-2.174-.565-4.601-.215-2.428-.425-4.452-.468-4.499-.042-.047-1.396.844-3.008 1.98-1.613 1.136-3.083 2.123-3.267 2.194-.245.094-.012-.975.876-4.008.666-2.275 1.18-4.167 1.143-4.204-.038-.038-1.222 1.231-2.632 2.82-3.347 3.769-5.995 6.227-8.372 7.77-4.572 2.968-5.599 3.445-4.553 2.116.263-.335.479-.689.479-.786 0-.254-2.27-2.704-2.505-2.704-.107 0-.445.367-.75.816-.839 1.235-4.621 5.439-5.283 5.873-.557.365-.578.363-.464-.041.065-.233.34-.975.61-1.649.299-.744.376-1.135.198-.996-.162.125-1.262.992-2.445 1.926-2.627 2.073-2.957 2.248-5.658 2.988-3.044.834-3.204.768-1.429-.585 2.812-2.141 5.946-4.722 10.287-8.472 2.361-2.039 4.349-3.708 4.418-3.708.069 0 1.092.916 2.275 2.035l2.15 2.034 1.31-1.185c.721-.653 2.776-2.561 4.567-4.242 3.097-2.906 11.627-10.629 12.466-11.288.357-.279 1.003.288 6.583 5.772 3.403 3.345 7.423 7.236 8.933 8.646l2.746 2.564 2.595-2.394c1.428-1.317 2.694-2.395 2.813-2.395.119 0 1.527 1.197 3.13 2.66 4.997 4.561 6.891 6.23 9.813 8.65 3.664 3.034 3.577 2.953 3.16 2.939-.182-.006-1.565-.505-3.074-1.11Z" style="fill: rgb(0, 0, 0);" class="fills" id="fills-a76415d3-fc7e-80b7-8004-bdf5c05b287e"/></g><g class="text-container" id="shape-d58ab6fe-773d-80b6-8004-c5ad16ed2c8f" data-testid="Portfolio"><defs><pattern patternUnits="userSpaceOnUse" x="120" y="16" width="252.906" height="84" id="fill-0-render-3-0"><rect width="252.906" height="84" style="fill: rgb(0, 0, 0); fill-opacity: 1;"/></pattern></defs><text x="120" y="94" dominant-baseline="ideographic" textLength="252.906" lengthAdjust="spacingAndGlyphs" style="text-transform: none; font-family: Poppins; letter-spacing: normal; font-style: normal; font-weight: 600; white-space: pre; font-size: 60px; text-decoration: none solid rgb(0, 0, 0); direction: ltr; fill: rgb(0, 0, 0); fill-opacity: 1;" class="fills" id="fills-d58ab6fe-773d-80b6-8004-c5ad16ed2c8f">Portfolio</text></g></g></svg>