<svg width="100" xmlns="http://www.w3.org/2000/svg" height="100" fill="none"><g data-testid="Group"><rect rx="0" ry="0" width="100" height="100" style="fill: rgb(177, 178, 181); fill-opacity: 0;" fill="none" class="fills" data-testid="Rectangle"/><g data-testid="Group"><path d="M25.857 82.59c6.804 3.392 12.953 5.132 20.679 5.853 2.582.241 8.56.111 11.489-.25 8.845-1.091 17.161-4.252 24.791-9.423 3.247-2.2 3.643-2.567 3.03-2.802-.678-.261-8.992.087-12.024.503-1.555.213-5.746.973-9.312 1.688-8.282 1.662-10.352 1.916-15.676 1.929-4.628.01-7.215-.274-11.051-1.215-9.925-2.435-16.919-7.391-20.465-14.503-1.612-3.234-2.219-5.789-2.222-9.363-.006-6.307 3.54-13.035 8.425-15.986 1.932-1.167 3.002-1.423 5.498-1.319 2.509.104 4.224.767 5.895 2.276 2.636 2.382 3.176 6.56 1.199 9.288-.845 1.166-.851 1.215-.158 1.217 1.123.003 2.965-.879 4.21-2.015 3.219-2.937 3.856-7.661 1.628-12.071-.988-1.956-3.527-4.301-5.932-5.478-2.558-1.253-4.326-1.715-7.232-1.889-4.001-.24-8.351.974-12.013 3.355C13.972 34.103 10 37.073 6 42.073c-2.4 3-6 7.193-6 11 0 4.5 6.294 13.962 10.371 18.178 4.925 5.095 9.118 8.165 15.486 11.339Z" style="fill: rgb(73, 140, 233); fill-opacity: 1;" class="fills" data-testid="svg-path"/><g data-testid="layer1" style="fill: rgb(0, 0, 0);"><path d="M88.445 48.163c1.451 1.89 2.877 3.604 3.169 3.809 1.213.849 3.084.14 3.084-1.169 0-.575-2.924-4.548-10.884-14.791-4.772-6.139-5.256-6.645-6.353-6.645-1.001 0-1.575.574-4.168 4.172-.932 1.292-1.802 2.348-1.935 2.348s-.566-.461-.961-1.023c-.395-.563-2.416-3.308-4.491-6.102a4699.606 4699.606 0 0 1-8.183-11.061c-2.426-3.29-4.647-6.147-4.935-6.349-.702-.491-1.938-.464-2.57.056-.283.233-2.009 2.463-3.836 4.956a4908.304 4908.304 0 0 1-5.465 7.441c-1.81 2.459-2.094 2.967-1.834 3.281.169.203 1.217 1.027 2.329 1.829l2.021 1.46.696-.746c.383-.41.804-.746.936-.746.495 0 1.297.971 4.398 5.321 1.753 2.461 3.278 4.507 3.387 4.547.11.04 1.489-1.756 3.065-3.99 3.159-4.478 4.094-5.636 4.551-5.636.614 0 1.619 1.062 3.96 4.185 1.316 1.755 4.276 5.641 6.577 8.634 2.301 2.993 4.828 6.285 5.614 7.316.788 1.031 1.516 1.874 1.619 1.874.103 0 .665-.666 1.25-1.481 4.131-5.758 4.755-6.334 5.828-5.371.272.244 1.681 1.99 3.131 3.881Z" style="fill: rgb(103, 205, 118);" class="fills" data-testid="svg-path"/></g><g data-testid="layer1" style="fill: rgb(0, 0, 0);"><path d="M25.567 65.581c4.121 4.333 11.106 7.303 19.092 8.117 2.947.3 8.63.137 11.731-.338 1.33-.203 5.139-.908 8.465-1.564 9.494-1.876 10.889-2.044 17.051-2.055 4.834-.008 7.807.222 9.479.734.541.166 2.145-1.545 4.845-5.169 2.311-3.103 3.038-4.294 2.778-4.555-.274-.274-6.566-.542-9.725-.415-6.566.266-11.671 1.107-21.284 3.505-8.205 2.048-11.88 2.647-17.172 2.8-7.538.219-12.736-.993-16.959-3.954-4.971-3.486-6.882-9.071-4.64-13.56.595-1.191 1.902-2.422 2.82-2.657.5-.127.554-.25.434-.989-.508-3.126-4.978-3.345-7.98-.39-2.339 2.302-3.315 4.699-3.483 8.555-.204 4.687 1.228 8.444 4.548 11.935Z" style="fill: rgb(119, 168, 238);" class="fills" data-testid="svg-path"/></g></g></g></svg>