<svg width="416.842" xmlns="http://www.w3.org/2000/svg" height="100" fill="none"><g data-testid="Group"><g data-testid="Group"><rect rx="0" ry="0" width="100" height="100" style="fill: rgb(255, 255, 255); fill-opacity: 0;" fill="none" class="fills" data-testid="Rectangle"/><g data-testid="Group"><path d="M25.857 82.59c6.804 3.392 12.953 5.132 20.679 5.853 2.582.241 8.56.111 11.489-.25 8.845-1.091 17.161-4.252 24.791-9.423 3.247-2.2 3.643-2.567 3.03-2.802-.678-.261-8.992.087-12.024.503-1.555.213-5.746.973-9.312 1.688-8.282 1.662-10.352 1.916-15.676 1.929-4.628.01-7.215-.274-11.051-1.215-9.925-2.435-16.919-7.391-20.465-14.503-1.612-3.234-2.219-5.789-2.222-9.363-.006-6.307 3.54-13.035 8.425-15.986 1.932-1.167 3.002-1.423 5.498-1.319 2.509.104 4.224.767 5.895 2.276 2.636 2.382 3.176 6.56 1.199 9.288-.845 1.166-.851 1.215-.158 1.217 1.123.003 2.965-.879 4.21-2.015 3.219-2.937 3.856-7.661 1.628-12.071-.988-1.956-3.527-4.301-5.932-5.478-2.558-1.253-4.326-1.715-7.232-1.889-4.001-.24-8.351.974-12.013 3.355C13.972 34.103 10 37.073 6 42.073c-2.4 3-6 7.193-6 11 0 4.5 6.294 13.962 10.371 18.178 4.925 5.095 9.118 8.165 15.486 11.339Z" style="fill: rgb(0, 0, 0); fill-opacity: 1;" class="fills" data-testid="svg-path"/><g data-testid="layer1" style="fill: rgb(0, 0, 0);"><path d="M88.445 48.163c1.451 1.89 2.877 3.604 3.169 3.809 1.213.849 3.084.14 3.084-1.169 0-.575-2.924-4.548-10.884-14.791-4.772-6.139-5.256-6.645-6.353-6.645-1.001 0-1.575.574-4.168 4.172-.932 1.292-1.802 2.348-1.935 2.348s-.566-.461-.961-1.023c-.395-.563-2.416-3.308-4.491-6.102a4699.606 4699.606 0 0 1-8.183-11.061c-2.426-3.29-4.647-6.147-4.935-6.349-.702-.491-1.938-.464-2.57.056-.283.233-2.009 2.463-3.836 4.956a4908.304 4908.304 0 0 1-5.465 7.441c-1.81 2.459-2.094 2.967-1.834 3.281.169.203 1.217 1.027 2.329 1.829l2.021 1.46.696-.746c.383-.41.804-.746.936-.746.495 0 1.297.971 4.398 5.321 1.753 2.461 3.278 4.507 3.387 4.547.11.04 1.489-1.756 3.065-3.99 3.159-4.478 4.094-5.636 4.551-5.636.614 0 1.619 1.062 3.96 4.185 1.316 1.755 4.276 5.641 6.577 8.634 2.301 2.993 4.828 6.285 5.614 7.316.788 1.031 1.516 1.874 1.619 1.874.103 0 .665-.666 1.25-1.481 4.131-5.758 4.755-6.334 5.828-5.371.272.244 1.681 1.99 3.131 3.881Z" style="fill: rgb(0, 0, 0); fill-opacity: 1;" class="fills" data-testid="svg-path"/></g><g data-testid="layer1" style="fill: rgb(0, 0, 0);"><path d="M25.567 65.581c4.121 4.333 11.106 7.303 19.092 8.117 2.947.3 8.63.137 11.731-.338 1.33-.203 5.139-.908 8.465-1.564 9.494-1.876 10.889-2.044 17.051-2.055 4.834-.008 7.807.222 9.479.734.541.166 2.145-1.545 4.845-5.169 2.311-3.103 3.038-4.294 2.778-4.555-.274-.274-6.566-.542-9.725-.415-6.566.266-11.671 1.107-21.284 3.505-8.205 2.048-11.88 2.647-17.172 2.8-7.538.219-12.736-.993-16.959-3.954-4.971-3.486-6.882-9.071-4.64-13.56.595-1.191 1.902-2.422 2.82-2.657.5-.127.554-.25.434-.989-.508-3.126-4.978-3.345-7.98-.39-2.339 2.302-3.315 4.699-3.483 8.555-.204 4.687 1.228 8.444 4.548 11.935Z" style="fill: rgb(0, 0, 0); fill-opacity: 1;" class="fills" data-testid="svg-path"/></g></g></g><g data-testid="layer1" style="fill: rgb(0, 0, 0);"><path d="M196.758 24.453h5.053v2.526c-1.909 0-3.565.646-4.969 1.937-1.347 1.291-2.442 3.677-3.284 7.158l-11.79 43.2-.168.673h-10.105l-10.274-37.726-10.105 37.053-.169.673h-10.105l-12.968-47.494a7.072 7.072 0 0 0-1.516-2.864 7.381 7.381 0 0 0-2.611-1.936c-.954-.449-1.993-.674-3.115-.674v-2.526h20.21v2.526c-1.01 0-1.824.393-2.442 1.179-.618.786-.786 1.656-.505 2.61l11.873 43.706 10.106-37.053-1.348-4.968a7.07 7.07 0 0 0-1.515-2.864 6.631 6.631 0 0 0-2.527-1.936 7.792 7.792 0 0 0-3.2-.674v-2.526h20.211v2.526c-1.011 0-1.825.393-2.442 1.179-.562.786-.73 1.656-.506 2.61l11.958 43.706 11.116-41.011c.449-1.628.14-3.116-.926-4.463-1.011-1.347-2.358-2.021-4.042-2.021v-2.526h10.105Zm20.7 15.158c5.333 0 9.937 1.824 13.81 5.473 3.874 3.649 5.979 8.113 6.316 13.39v.168c0 .674-.224 1.235-.673 1.684-.45.449-1.011.674-1.685.674h-25.01c-.842 0-1.516.309-2.021.926-.506.618-.674 1.32-.506 2.106.506 2.694 1.432 5.136 2.779 7.326 1.348 2.133 3.088 3.789 5.221 4.968 2.134 1.179 4.408 1.544 6.822 1.095a18.504 18.504 0 0 0 4.631-1.432 15.672 15.672 0 0 0 4.042-2.778 16.737 16.737 0 0 0 3.116-3.79c-.281 0-.561-.028-.842-.084a1.537 1.537 0 0 1-.674-.505 3.364 3.364 0 0 1-.421-.758c-.281-.955.056-1.656 1.011-2.106.729-.224 1.347-.14 1.852.253.561.337.814 1.011.758 2.021-.056.955-.505 2.049-1.347 3.284-3.818 5.614-9.544 8.421-17.179 8.421-5.614 0-10.386-1.965-14.316-5.894-3.93-3.93-5.895-8.674-5.895-14.232 0-5.614 1.965-10.386 5.895-14.316 3.93-3.93 8.702-5.894 14.316-5.894Zm7.326 18.863c.73 0 1.348-.281 1.853-.842.505-.618.702-1.292.589-2.021-.505-3.93-1.684-7.158-3.537-9.685-1.796-2.582-3.873-3.873-6.231-3.873-1.572 0-3.06.589-4.463 1.768-1.348 1.179-2.498 2.807-3.453 4.884-.954 2.021-1.6 4.323-1.937 6.906-.112.729.084 1.403.59 2.021.505.561 1.151.842 1.937.842h14.652Zm46.437-34.021c4.155 0 7.692 1.487 10.611 4.463 2.975 2.919 4.463 6.484 4.463 10.695 0 4.154-1.488 7.719-4.463 10.694-2.919 2.92-6.456 4.379-10.611 4.379h-15.158v17.684c0 1.404.477 2.611 1.432 3.621 1.01.955 2.218 1.432 3.621 1.432v2.526h-20.211v-2.526c1.403 0 2.582-.477 3.537-1.432 1.011-1.01 1.516-2.217 1.516-3.621V32.032c0-1.404-.505-2.583-1.516-3.537-.955-1.011-2.134-1.516-3.537-1.516v-2.526h30.316Zm-5.053 27.705c2.751 0 5.109-1.207 7.074-3.621 2.021-2.47 3.032-5.446 3.032-8.926 0-3.537-1.011-6.513-3.032-8.927-1.965-2.47-4.323-3.705-7.074-3.705h-5.052c-1.403 0-2.611.505-3.621 1.516-.955.954-1.432 2.133-1.432 3.537v15.073c0 1.404.477 2.611 1.432 3.621 1.01.955 2.218 1.432 3.621 1.432h5.052Zm40.517-12.547c5.333 0 9.937 1.824 13.811 5.473 3.873 3.649 5.979 8.113 6.316 13.39v.168c0 .674-.226 1.235-.674 1.684-.45.449-1.011.674-1.684.674h-25.011c-.842 0-1.516.309-2.021.926-.505.618-.674 1.32-.505 2.106.505 2.694 1.431 5.136 2.779 7.326 1.347 2.133 3.087 3.789 5.221 4.968 2.132 1.179 4.406 1.544 6.821 1.095a18.517 18.517 0 0 0 4.631-1.432 15.678 15.678 0 0 0 4.043-2.778 16.76 16.76 0 0 0 3.115-3.79c-.281 0-.562-.028-.842-.084a1.528 1.528 0 0 1-.673-.505 3.25 3.25 0 0 1-.421-.758c-.282-.955.055-1.656 1.01-2.106.73-.224 1.347-.14 1.853.253.561.337.813 1.011.758 2.021-.057.955-.506 2.049-1.348 3.284-3.818 5.614-9.544 8.421-17.179 8.421-5.614 0-10.386-1.965-14.316-5.894-3.93-3.93-5.894-8.674-5.894-14.232 0-5.614 1.964-10.386 5.894-14.316 3.93-3.93 8.702-5.894 14.316-5.894Zm7.327 18.863c.729 0 1.347-.281 1.852-.842.505-.618.701-1.292.59-2.021-.506-3.93-1.685-7.158-3.537-9.685-1.797-2.582-3.874-3.873-6.232-3.873-1.572 0-3.06.589-4.463 1.768-1.347 1.179-2.499 2.807-3.453 4.884-.954 2.021-1.6 4.323-1.936 6.906-.113.729.084 1.403.589 2.021.505.561 1.151.842 1.937.842h14.653Zm53.931 16.421.926.926c-.562 1.74-1.684 2.976-3.368 3.705a6.276 6.276 0 0 1-2.274.421c-2.078 0-3.705-.842-4.884-2.526a13.274 13.274 0 0 1-3.789 1.6c-3.594.898-7.495 1.151-11.706.758-4.21-.393-7.27-1.404-9.179-3.032-1.178-1.01-2.021-2.217-2.526-3.621-.449-1.403-.505-2.947-.168-4.631.392-1.684 1.179-3.341 2.358-4.969 1.234-1.684 3.087-3.312 5.558-4.884 2.469-1.572 5.445-2.891 8.926-3.958a82.7 82.7 0 0 1 1.6-.337c.561-.168 1.038-.308 1.431-.421l1.179-.337c.393-.112.73-.196 1.011-.252 1.571-.786 2.358-2.049 2.358-3.79 0-1.628-.45-3.115-1.348-4.463-.899-1.403-2.077-2.442-3.536-3.116-.843-.28-2.021-.477-3.537-.589-1.516-.112-3.229.112-5.137.674-1.853.561-3.229 1.515-4.126 2.863 1.01.224 1.852.758 2.526 1.6.674.786 1.01 1.684 1.01 2.695 0 1.235-.449 2.301-1.347 3.2-.842.842-1.881 1.263-3.116 1.263-1.741 0-3.031-.73-3.873-2.19-.787-1.459-.899-3.003-.337-4.631.505-1.404 1.347-2.611 2.526-3.621a10.318 10.318 0 0 1 4.042-2.274c1.572-.505 3.032-.842 4.379-1.011a27.204 27.204 0 0 1 4.295-.336c4.884 0 9.038 1.235 12.463 3.705 3.48 2.414 5.221 5.361 5.221 8.842v21.81c0 .562.112 1.067.337 1.516.28.393.589.59.926.59.561 0 .954-.393 1.179-1.179Zm-12.547-7.579V56.368c0-.393-.169-.701-.505-.926-.337-.281-.703-.365-1.095-.253-2.358.674-4.352 1.348-5.979 2.022a13.13 13.13 0 0 0-3.2 1.936c-.899.786-1.629 1.6-2.19 2.442a18.332 18.332 0 0 0-1.347 2.779 13.487 13.487 0 0 0-.674 2.695 16.695 16.695 0 0 0-.168 2.358c0 2.639.701 4.632 2.105 5.979 1.403 1.347 3.228 2.021 5.474 2.021 2.077 0 3.845-.982 5.305-2.947 1.516-1.965 2.274-4.351 2.274-7.158Zm61.315-24.337c0 .505-.085.954-.253 1.347a3.507 3.507 0 0 1-.758 1.095c-.281.281-.645.533-1.095.758a3.173 3.173 0 0 1-1.263.253v-.085c0-.617-.308-1.038-.926-1.263-.561-.224-1.067-.112-1.516.337l-14.316 14.316 10.611 12.21c1.797 2.021 3.312 3.453 4.547 4.295 1.235.786 2.892 1.179 4.969 1.179v2.526h-15.916l-2.19-2.526-9.179-10.526-2.947 2.947v2.526c0 1.404.477 2.611 1.432 3.621 1.01.955 2.217 1.432 3.621 1.432v2.526h-20.211v-2.526c1.403 0 2.582-.477 3.537-1.432 1.01-1.01 1.544-2.217 1.6-3.621v-37.81h-5.137v-2.526c.224 0 .561-.029 1.011-.085.449-.056 1.263-.252 2.442-.589a17.369 17.369 0 0 0 3.452-1.516c1.123-.617 2.33-1.628 3.621-3.031 1.348-1.404 2.471-3.032 3.369-4.885h1.263v44.295l1.263-1.179 22.147-22.231 2.106-1.937c.898-.842 1.908-1.011 3.031-.506 1.123.45 1.685 1.32 1.685 2.611Z" style="fill: rgb(0, 0, 0); fill-opacity: 1;" class="fills" data-testid="svg-path"/></g></g></svg>